<svg xmlns="http://www.w3.org/2000/svg" width="131.8" height="18.7"><rect id="backgroundrect" width="100%" height="100%" x="0" y="0" fill="none" stroke="none"/><style>.st0{fill:#343339}.st1{fill:#7597f0}</style><switch><g id="svg_1"><g id="Слой_4"><path class="st0" d="M23.9 13.6c-3.8 6.8-10.1 5.6-14 2.2C6.1 12 2.1 11.3.4 11.1c-.2-.1-.4-.3-.4-.5 0-.4.3-.6.6-.6H14c.6 0 1.1.3 1.5.8.4.7 1.2 1.1 2 1.2 1.6.2 3.1-1.1 3.1-2.7 0-.4-.1-.8-.2-1.2.3.3 3.6 5.4 3.5 5.5zM23.9 5.1C27.7-1.7 34-.4 37.9 3c3.8 3.8 7.8 4.5 9.5 4.7.2 0 .4.2.4.5s-.3.6-.6.6H34.7c-1 0-1.9-.4-2.5-1.1-.6-.7-1.7-1.1-2.8-.9-1 .2-1.8.9-2 1.9-.2.6-.1 1.2 0 1.8-.4-.7-3.6-5-3.5-5.4z" id="svg_2"/><path class="st1" d="M47.3 10H34.8c-1.1 0-2 .5-2.7 1.3-.5.6-1.2 1-2 1-1.2 0-2.2-.8-2.6-1.9-.2-.7-2.6-3.7-3.5-5.3C20.1-1.7 13.6-.9 9.9 3 6.1 7 2.4 7.4.5 7.7c-.3 0-.5.3-.5.6s.2.5.5.5H14c.6 0 1.1-.3 1.4-.9.5-.8 1.4-1.5 2.4-1.5 1.1 0 2.1.7 2.5 1.7.3.6 2.7 3.9 3.6 5.5 3.8 6.9 10.3 6.1 14 2.2 3.8-4 7.5-4.4 9.4-4.7.3 0 .5-.3.5-.6s-.2-.5-.5-.5z" id="svg_3"/></g></g></switch><g class="currentLayer"><title>Layer 1</title><rect fill="#7597f0" stroke="none" stroke-width="2" stroke-linejoin="round" stroke-dashoffset="" fill-rule="nonzero" id="svg_4" x="49" y="1" width="82" height="17" style="color: rgb(0, 0, 0);" class="" fill-opacity="1"/></g></svg>