<svg id="Слой_1" xmlns="http://www.w3.org/2000/svg" viewBox="0 0 720 416"><style>.st1{fill:#cddcf2}.st2{fill:#597fd8}.st3{fill:#343339}.st4{fill:#252a43}.st5{fill:#7597f0}.st6{fill:#fff}.st9{fill:#b9d0ec}.st10{fill:#e9a79d}</style><switch><g><g id="img"><path id="Фигура_553" d="M0 196.3s9.1-72 72.8-64.6c87.9 10.1 43.2-59.4 86.1-86 52.6-32.5 88.1 8.6 135.5-23.9 77.9-53.4 101.9 8.5 134 4.6 31.6-3.8 61.8-24.9 95.3-12.7 69.9 25.3 33.4 92.8 80.8 109.2 51.1 17.7 114.2 37.5 115.4 86.9 1.3 52.9-15.5 82.5-89.1 95.4-57.3 10-9.8 63.4-86.9 83.1-44.6 11.4-65.9-5.8-105.9-2.9-55.6 4-51.1 30-105.1 30.6-68.6.8-95.6-41.2-141.6-37.9-59.9 4.3-91.3 2.9-101.6-62.5C81.2 262.3 1.4 296.4 0 196.3z" fill="#e1eeff"/></g><path class="st1" d="M456.8 288.3h10.1v40.5h-10.1zM509.1 288.3h11.4v40.5h-11.4z"/><path class="st2" d="M501.6 80.7l-36.7 8.7c-3.8 5.5-6.7 11.7-8 17.8-1.2 5.5-1.1 10.9 0 15.9 1.3 5.7-.2 11.8-3.8 16.4-2.9 3.7-5 8.1-6.1 13.1-3.5 16.1 6 29 20.5 32.2 14.5 3.2 28.6-4.6 32.1-20.7 1.1-5 1-9.9-.1-14.4-1.4-5.7-.2-11.8 3.4-16.5 3.1-4 5.4-8.9 6.6-14.4 2.7-12.8-.4-29.1-7.9-38.1z"/><path class="st1" d="M474.8 95.6c9.4 2.1 19.7-5.2 26.7-15.3L464.8 89c2.7 3.4 6.1 5.8 10 6.6z"/><path class="st2" d="M455.7 157.5c-4.1-3.9-6.1-9.6-5.2-15.2.8-4.9.5-10.1-1.2-15.2-5.2-16-23.9-32.1-38.9-27.2-15 4.9-20.6 28.9-15.3 44.9 1.7 5.1 4.5 9.5 8 13 4.1 4 5.8 9.7 4.8 15.3-.8 4.5-.5 9.2 1 13.8 4.9 15 20.2 20.6 35.1 15.7 15-4.9 24-18.5 19.1-33.4-1.5-4.6-4.1-8.6-7.4-11.7z"/><path class="st3" d="M453.7 236.2c-.3 0-.6-.2-.7-.5l-37.3-114.2c-.1-.4.1-.8.5-1 .4-.1.8.1 1 .5l37.3 114.2c.1.4-.1.8-.5 1h-.3z"/><path class="st4" d="M434.3 177.4c-.1 0-.2 0-.3-.1l-18.4-9.3c-.4-.2-.5-.7-.3-1 .2-.4.7-.5 1-.3l18.4 9.3c.4.2.5.7.3 1-.2.3-.4.4-.7.4z"/><path class="st3" d="M455.7 231.6h-.2c-.4-.1-.7-.5-.6-.9l26.9-123c.1-.4.5-.7.9-.6.4.1.7.5.6.9l-26.9 123c0 .4-.3.6-.7.6z"/><path class="st3" d="M477.7 135.7c-.2 0-.5-.1-.6-.3-.2-.3-.2-.8.2-1.1l23.3-16.7c.3-.2.8-.2 1.1.2.2.3.2.8-.2 1.1l-23.3 16.7c-.2.1-.4.1-.5.1zM471.5 155.9c-.3 0-.5-.1-.7-.4l-10.2-17.9c-.2-.4-.1-.8.3-1 .4-.2.8-.1 1 .3l10.2 17.9c.2.4.1.8-.3 1 0 0-.1.1-.3.1z"/><path class="st5" d="M520.2 148.3c0-3.5-.6-7.2-1.6-10.8L463.1 193c.2 15.6 12.9 25.5 28.5 25.5 15.8 0 28.5-10.1 28.5-25.8 0-4.9-1.2-9.4-3.4-13.4-2.7-5-2.9-11-.2-16.1 2.4-4.5 3.7-9.5 3.7-14.9z"/><path class="st4" d="M457.1 231.2c-.4 0-.8-.4-.8-.8l.4-29.2c0-1.4.6-2.8 1.7-3.8l5.5-5.2c.3-.3.8-.3 1.1 0 .3.3.3.8 0 1.1l-5.5 5.2c-.7.7-1.2 1.7-1.2 2.7l-.4 29.2c0 .5-.3.8-.8.8z"/><path class="st1" d="M537.3 114.9c11.4 10.8 6.2 34.9-5.4 47.2-3.7 3.9-8.1 6.7-12.8 8.3-5.4 1.9-9.4 6.3-10.9 11.8-1.2 4.4-3.5 8.5-6.8 12.1-10.8 11.4-27.1 10-38.5-.9l74.4-78.5z"/><path class="st3" d="M501.1 175.9s-.1 0 0 0l-18.7-1.9c-.4 0-.7-.4-.7-.8s.4-.7.8-.7l18.6 1.9c.4 0 .7.4.7.8s-.3.7-.7.7zM527.4 147.7s-.1 0 0 0l-18.7-1.9c-.4 0-.7-.4-.7-.8s.4-.7.8-.7l18.6 1.9c.4 0 .7.4.7.8s-.3.7-.7.7zM427.3 153.6h-.2c-.4-.1-.6-.5-.5-.9l6-20.9c.1-.4.5-.6.9-.5.4.1.6.5.5.9l-6 20.9c0 .3-.3.5-.7.5z"/><path class="st6" d="M427.2 243.7c0 12.1 6.8 22.6 16.9 27.8h29c10-5.2 16.9-15.7 16.9-27.8 0-8.6-3.5-16.4-9.1-22.1h-44.5c-5.7 5.7-9.2 13.5-9.2 22.1z"/><g><path class="st2" d="M487 231.2h-37.2c-.4 0-.8-.3-.8-.8 0-.4.3-.8.8-.8H487c.4 0 .8.3.8.8s-.4.8-.8.8z"/></g><g><path class="st2" d="M488 235.1h-21c-.4 0-.8-.3-.8-.8 0-.4.3-.8.8-.8h21c.4 0 .8.3.8.8 0 .4-.3.8-.8.8z"/></g><g><path class="st5" d="M401.9 264.7c5.2 0 9.9-1.9 12.2-5.1 1.3-1.7 1.6-3.5 1.1-5.3l-5.5-17.9h-29.8l5 16.4c2.3 7.4-5.6 14.4-16.2 14.4h14.5v-2.5h18.7z"/><path class="st3" d="M421.1 252.4l-4.9-16.1h-6.6l5.5 17.9c.6 1.8.2 3.6-1.1 5.3-2.3 3.1-7 5.1-12.2 5.1h-18.7v6.3h18.7c7.1 0 13.7-2.9 17.2-7.6 2.5-3.3 3.2-7.1 2.1-10.9z"/><path class="st5" d="M383 270.9h-36.3c-1.4 0-2.6-1.2-2.6-2.6v-1.1c0-1.4 1.2-2.6 2.6-2.6H383c1.4 0 2.6 1.2 2.6 2.6v1.1c0 1.5-1.2 2.6-2.6 2.6z"/><path class="st4" d="M379.9 236.3l1.8 6.2h30.1l-1.8-6.2s-30.3-.1-30.1 0z"/><path class="st3" d="M330.7 237.8h130.9c3.5 0 6.3-2.8 6.3-6.3v-89.4c0-3.5-2.9-6.4-6.4-6.4H330.7c-3.5 0-6.3 2.8-6.3 6.3v89.4c-.1 3.6 2.8 6.4 6.3 6.4z"/><path class="st5" d="M323.7 237.8h130.9c3.5 0 6.3-2.8 6.3-6.3v-89.4c0-3.5-2.9-6.4-6.4-6.4H323.7c-3.5 0-6.3 2.8-6.3 6.3v89.4c-.1 3.6 2.8 6.4 6.3 6.4z"/><path d="M445 227.4H327.8c-3 0-5.4-2.4-5.4-5.4v-75.3c0-3 2.4-5.4 5.4-5.4H445c3 0 5.4 2.4 5.4 5.4V222c0 3-2.4 5.4-5.4 5.4z" fill="#eff5ff"/></g><g><path class="st6" d="M225 271.5h298.2v16.9H225z"/></g><g><path class="st3" d="M508.6 288.3h1v39.1h-1z"/></g><g><path class="st3" d="M520 288.3h1v39.1h-1z"/></g><g><path class="st3" d="M466.5 288.3h1v39.1h-1z"/></g><g><path class="st3" d="M456.3 288.3h1v39.1h-1z"/></g><g><path class="st1" d="M436 140.8c0-3.3-2.6-5.9-5.9-5.9H316c-3.3 0-5.9 2.6-5.9 5.9v6.9H436v-6.9z"/><path class="st3" d="M310.1 147.7V212c0 3.3 2.6 5.9 5.9 5.9h114.1c3.3 0 5.9-2.6 5.9-5.9v-64.3H310.1z"/><path class="st6" d="M316.5 152.7h37.6v59.6h-37.6zM361.9 153.4h60.3v17.7h-60.3zM362.6 176.8h58.9v32.6h-58.9z"/><ellipse transform="rotate(-80.752 318.603 141.664)" cx="318.6" cy="141.7" rx="3.7" ry="3.7" fill="#3d4b9b"/><ellipse transform="rotate(-80.752 329.242 141.664)" class="st5" cx="329.2" cy="141.7" rx="3.7" ry="3.7"/><g><ellipse transform="rotate(-79.298 339.603 141.67)" class="st5" cx="339.6" cy="141.7" rx="3.7" ry="3.7"/></g></g><g><path class="st3" d="M458.6 271.3h-36.3v-2.7c0-7.1 5.8-12.9 12.9-12.9h10.4c7.1 0 12.9 5.8 12.9 12.9v2.7z"/></g><g><path class="st9" d="M315.6 221.4l51 67.7c4.7 6.3 3.5 15.2-2.8 19.9-5.6 4.2-13.4 3.7-18.3-1L284 249.6c-8.5-8.1-8.9-21.6-.8-30.1s21.6-8.9 30.1-.8c.8.8 1.7 1.8 2.3 2.7z"/><path class="st9" d="M308.3 316h-81.4l-9.1-104.8 71.7 1.3c11.1.2 20 8.5 20.5 18.8l-1.7 84.7z"/><path class="st10" d="M287.1 215.9h-9.7v-29.4h19v20.1c0 5.1-4.1 9.3-9.3 9.3z"/><path class="st5" d="M308.9 273c-.3 0-.6-.2-.7-.4l-7.3-13.6c-.2-.4-.1-.9.3-1.1.4-.2.9-.1 1.1.3l7.3 13.6c.2.4.1.9-.3 1.1-.1.1-.2.1-.4.1z"/><path class="st10" d="M299.1 195.2l-26.4-1.3c-6.2-.3-11-5.6-10.7-11.8l2.3-46.8c.3-6.2 5.6-11 11.8-10.7l9.5.5c18.6.9 32.9 16.7 32 35.3l-.9 18.8c-.5 9.3-8.4 16.4-17.6 16z"/><path class="st3" d="M323.4 146l-1.5-7.7c-2.5-12.3-13.3-21.2-25.9-21.2h-21.5c-16.3 0-30.2 11.3-34.1 26.5-.7 2.8-2.3 5.4-4.6 7.1-4.4 3.4-7.3 8.7-7.3 14.7v.1c0 5.9-3.3 11.3-8.4 14.2-15.6 9-25.8 26.4-24.4 46.1 1.7 24.2 21.4 43.8 45.6 45.4 28.6 1.9 52.4-20.8 52.4-49 0-9.6-7.4-50-7.4-50 10.5-.6 19-9.4 19-20V151c0-2.7 2.2-5 5-5h13.1z"/><circle class="st10" cx="290.4" cy="168.3" r="9.5"/><path class="st10" d="M431.9 256.5c-1.7-3.7-6.1-5.4-9.9-3.7l-17.7 8 10.6 14.7 14.4-9.8c3-2 4.2-5.8 2.6-9.2zM456.7 250.4l4.7 7.1c.5.8.3 1.8-.5 2.3-.7.4-1.5.3-2.1-.2l-6-6.1c-1-1-.9-2.5 0-3.5 1-1 2.5-.9 3.5 0 .2.1.3.2.4.4z"/><path class="st10" d="M457.3 263.6l-3.3-6.8c-.1-.1-.1-.3-.2-.4-.2-.2-.4-.4-.6-.5-.3-.4-.7-.7-1.2-.8l-4.4-.9 7-.5c1.2-.1 2.2-1.1 2.1-2.4 0-1.2-1.1-2.1-2.3-2.2 0 0-15.3-1.2-15.8-1.2-.2 0-1.3.1-1.5.1l-14.2 4.5 1.7 16.4 8-5.6c.7-.7 1.8-.8 2.7-.4 1 .5 2.1.7 3.3.7 2 0 3.8-.7 5.2-2 .5-.4 1.1-.6 1.8-.6l1.1.1 4.5 6.1c.4.6 1.3.8 2 .4s.8-1.3.5-2l-2.6-5.4 3.8 5c.4.6 1.3.8 2 .4.6-.5.8-1.4.4-2z"/><path class="st9" d="M352.2 283.6c-.7.3-1.5.8-2.2 1.2-6.8 4.6-8.6 13.9-3.9 20.7 4.6 6.8 13.9 8.6 20.7 3.9l51-34.2L406 259l-53.8 24.6z"/><g><path class="st5" d="M349 290.4c-.2 0-.4-.1-.5-.2-.4-.3-.4-.8-.1-1.2 2.2-2.8 10.2-9.2 10.6-9.5.4-.3.9-.2 1.2.1.3.4.2.9-.1 1.2-.1.1-8.2 6.6-10.3 9.2-.4.3-.6.4-.8.4z"/></g></g><g><path class="st5" d="M312.6 327.5h-95.9l-9.3-62c-1.4-9.5 5.2-17.3 14.7-17.3h61.4c9.5 0 18.4 7.7 19.8 17.3l9.3 62z"/><path class="st6" d="M307.1 327.5h-95.9l-9.3-62c-1.4-9.5 5.2-17.3 14.7-17.3H278c9.5 0 18.4 7.7 19.8 17.3l9.3 62z"/></g><path class="st1" d="M557.4 334.3h-397c-2 0-3.6-1.6-3.6-3.6s1.6-3.6 3.6-3.6h397c2 0 3.6 1.6 3.6 3.6s-1.6 3.6-3.6 3.6z"/><ellipse transform="rotate(-27.365 256.038 125.112)" class="st3" cx="256" cy="125.1" rx="27" ry="27"/><g><path fill="#b1cbec" d="M467.6 271.5h55.6v16.9h-55.6z"/></g><g><path d="M296.4 195.1s-3.5-1.3-6.6-4.1c0 0 2.3 6.4 6.6 9.3v-5.2z" fill="#db928a"/></g></g></switch></svg>