<svg id="Слой_1" xmlns="http://www.w3.org/2000/svg" viewBox="0 0 871.8 896.1"><style>.st1{fill:#cddcf2}.st2{fill:#597fd8}.st3{fill:#343339}.st4{fill:#252a43}.st5{fill:#7597f0}.st6{fill:#fff}.st9{fill:#b9d0ec}.st10{fill:#e9a79d}</style><switch><g><g id="img"><path id="Фигура_553" d="M1.3 434.5S18.1 312.3 128.6 325c152.5 17.6 43.9-123.7 199.3-189.2 98.8-41.7 151.3 34 200.3-34.4 81.9-114.2 166.5-53.5 219-64 31.3-15.8 59.5-48.1 124-34 1.5 78.3-1 809.7.4 891.9-54.8 9.3-76-70.8-145.4-66.9-71 4-129.8 65.9-192 1-82.3-85.9-120.5-82.6-200.3-76.8-104 7.5-158.3 5-176.3-108.4C143 551.7-15.8 599.3 1.3 434.5z" fill="#e1eeff"/></g><path class="st1" d="M647.7 567.4h15v59.7h-15zM724.8 567.4h16.8v59.7h-16.8z"/><path class="st2" d="M713.6 261.3l-54.1 12.9c-5.6 8-9.9 17.3-11.9 26.2-1.8 8.1-1.7 16.1 0 23.4 1.9 8.4-.3 17.4-5.6 24.2-4.2 5.4-7.4 11.9-9 19.3-5.2 23.8 8.8 42.8 30.2 47.5 21.4 4.7 42.1-6.7 47.3-30.5 1.6-7.3 1.5-14.6-.1-21.2-2-8.4-.2-17.5 5-24.3 4.5-5.9 8-13.2 9.7-21.3 4.1-18.8-.4-42.9-11.5-56.2z"/><path class="st1" d="M674.1 283.3c13.9 3 29-7.7 39.4-22.5l-54.1 12.9c4.1 4.9 9 8.4 14.7 9.6z"/><path class="st2" d="M646 374.5c-6.1-5.8-9-14.1-7.7-22.4 1.2-7.2.7-14.9-1.8-22.4-7.7-23.6-35.3-47.3-57.3-40.1-22.1 7.2-30.3 42.6-22.6 66.2 2.5 7.5 6.6 14 11.8 19.1 6 5.9 8.5 14.3 7 22.6-1.2 6.6-.8 13.5 1.5 20.3 7.2 22.1 29.7 30.4 51.8 23.1 22.1-7.2 35.4-27.2 28.1-49.3-2.1-6.6-5.9-12.5-10.8-17.1z"/><path class="st3" d="M643 490.6c-.5 0-.9-.3-1.1-.8l-55.1-168.4c-.2-.6.1-1.2.7-1.4.6-.2 1.2.1 1.4.7L644 489.1c.2.6-.1 1.2-.7 1.4 0 .1-.2.1-.3.1z"/><path class="st4" d="M614.5 403.9c-.2 0-.3 0-.5-.1L586.8 390c-.6-.3-.8-1-.5-1.5.3-.6 1-.8 1.5-.5l27.1 13.8c.6.3.8 1 .5 1.5-.1.4-.5.6-.9.6z"/><path class="st3" d="M646.1 483.8h-.2c-.6-.1-1-.7-.9-1.3l39.6-181.3c.1-.6.7-1 1.3-.9.6.1 1 .7.9 1.3l-39.6 181.3c-.1.6-.6.9-1.1.9z"/><path class="st3" d="M678.4 342.4c-.4 0-.7-.2-.9-.5-.4-.5-.2-1.2.3-1.6l34.4-24.7c.5-.4 1.2-.2 1.6.3.4.5.2 1.2-.3 1.6l-34.4 24.7c-.2.2-.5.2-.7.2zM669.4 372.1c-.4 0-.8-.2-1-.6l-15-26.3c-.3-.5-.1-1.2.4-1.5.5-.3 1.2-.1 1.5.4l15 26.3c.3.5.1 1.2-.4 1.5-.2.2-.4.2-.5.2z"/><path class="st5" d="M741.1 361c0-5.2-.8-10.6-2.3-16L657 426.8c.3 22.9 19 37.6 42 37.6 23.2 0 42.1-14.9 42.1-38.1 0-7.2-1.8-13.9-4.9-19.8-4-7.4-4.2-16.2-.3-23.7 3.2-6.5 5.2-13.9 5.2-21.8z"/><path class="st4" d="M648.1 483.2c-.6 0-1.1-.5-1.1-1.1l.5-43c0-2.1.9-4.2 2.5-5.6l8.1-7.7c.5-.4 1.2-.4 1.6 0 .4.5.4 1.2 0 1.6l-8.1 7.7c-1.1 1-1.7 2.5-1.8 4l-.5 43c0 .6-.6 1.1-1.2 1.1z"/><path class="st1" d="M766.3 311.7c16.9 16 9.2 51.5-7.9 69.5-5.5 5.8-12 9.8-18.9 12.2-7.9 2.7-13.8 9.3-16 17.4-1.8 6.5-5.1 12.6-10 17.8-16 16.9-39.9 14.7-56.7-1.3l109.5-115.6z"/><path class="st3" d="M712.9 401.7h-.1l-27.4-2.8c-.6-.1-1.1-.6-1-1.2.1-.6.6-1.1 1.2-1l27.4 2.8c.6.1 1.1.6 1 1.2 0 .6-.5 1-1.1 1zM751.7 360.1h-.1l-27.4-2.8c-.6-.1-1.1-.6-1-1.2.1-.6.6-1.1 1.2-1l27.4 2.8c.6.1 1.1.6 1 1.2 0 .6-.5 1-1.1 1zM604.2 368.8h-.3c-.6-.2-.9-.8-.8-1.4l8.9-30.8c.2-.6.8-.9 1.4-.8.6.2.9.8.8 1.4l-8.9 30.8c-.2.5-.6.8-1.1.8z"/><path class="st6" d="M604 501.6c0 17.8 10.1 33.3 24.8 41h42.8c14.8-7.7 24.8-23.2 24.8-41 0-12.7-5.1-24.2-13.4-32.6h-65.6c-8.3 8.4-13.4 19.9-13.4 32.6z"/><g><path class="st2" d="M692.1 483.2h-54.8c-.6 0-1.1-.5-1.1-1.1 0-.6.5-1.1 1.1-1.1h54.8c.6 0 1.1.5 1.1 1.1.1.6-.4 1.1-1.1 1.1z"/></g><g><path class="st2" d="M693.7 488.9h-31c-.6 0-1.1-.5-1.1-1.1 0-.6.5-1.1 1.1-1.1h31c.6 0 1.1.5 1.1 1.1 0 .6-.5 1.1-1.1 1.1z"/></g><g><path class="st5" d="M566.7 532.5c7.7 0 14.6-2.9 18-7.5 1.9-2.5 2.4-5.1 1.6-7.8l-8.1-26.5h-43.9l7.4 24.1c3.3 10.9-8.3 21.3-23.9 21.3H539v-3.6h27.7z"/><path class="st3" d="M595 514.5l-7.3-23.8H578l8.1 26.5c.8 2.7.3 5.3-1.6 7.8-3.4 4.6-10.3 7.5-18 7.5H539v9.2h27.6c10.5 0 20.3-4.3 25.4-11.2 3.6-4.9 4.7-10.5 3-16z"/><path class="st5" d="M538 541.8h-51.9c-2.6 0-4.7-2.1-4.7-4.7s2.1-4.7 4.7-4.7H538c2.6 0 4.7 2.1 4.7 4.7s-2.1 4.7-4.7 4.7z"/><path class="st4" d="M534.2 490.7l2.7 9.2h44.4l-2.7-9.2c.1 0-44.6-.2-44.4 0z"/><path class="st3" d="M458.7 492.9h198.9c3.5 0 6.3-2.8 6.3-6.3V348.8c0-3.5-2.9-6.4-6.4-6.4H458.7c-3.5 0-6.3 2.8-6.3 6.3v137.8c0 3.6 2.8 6.4 6.3 6.4z"/><path class="st5" d="M448.4 492.9h198.9c3.5 0 6.3-2.8 6.3-6.3V348.8c0-3.5-2.9-6.4-6.4-6.4H448.4c-3.5 0-6.3 2.8-6.3 6.3v137.8c-.1 3.6 2.8 6.4 6.3 6.4z"/><path d="M632.8 477.6h-178c-3 0-5.4-2.4-5.4-5.4v-116c0-3 2.4-5.4 5.4-5.4h178c3 0 5.4 2.4 5.4 5.4v116c0 3-2.4 5.4-5.4 5.4z" fill="#eff5ff"/></g><g><path class="st6" d="M305.9 542.5h439.6v24.9H305.9z"/></g><g><path class="st3" d="M724 567.4h1.5V625H724z"/></g><g><path class="st3" d="M740.8 567.4h1.5V625h-1.5z"/></g><g><path class="st3" d="M661.9 567.4h1.5V625h-1.5z"/></g><g><path class="st3" d="M646.9 567.4h1.5V625h-1.5z"/></g><g><path class="st1" d="M617 350c0-4.8-3.9-8.7-8.7-8.7H440.1c-4.8 0-8.7 3.9-8.7 8.7v10.1H617V350z"/><path class="st3" d="M431.4 360.1v94.8c0 4.8 3.9 8.7 8.7 8.7h168.2c4.8 0 8.7-3.9 8.7-8.7v-94.8H431.4z"/><path class="st6" d="M440.8 367.4h55.4v87.8h-55.4zM507.7 368.4h88.9v26.1h-88.9zM508.7 403h86.8v48.1h-86.8z"/><ellipse transform="rotate(-80.752 443.923 351.197)" cx="443.9" cy="351.2" rx="5.5" ry="5.5" fill="#3d4b9b"/><ellipse transform="rotate(-80.752 459.607 351.197)" class="st5" cx="459.6" cy="351.2" rx="5.5" ry="5.5"/><g><ellipse transform="rotate(-79.298 474.876 351.2)" class="st5" cx="474.9" cy="351.2" rx="5.5" ry="5.5"/></g></g><g><path class="st3" d="M650.3 542.3h-53.5c0-12.8 10.3-23.1 23.1-23.1h7.3c12.7 0 23.1 10.4 23.1 23.1z"/></g><g><path class="st9" d="M439.6 468.7l75.2 99.9c6.9 9.2 5.1 22.3-4.1 29.3-8.3 6.2-19.7 5.4-27-1.5l-90.8-86c-12.6-11.9-13.1-31.8-1.2-44.3 11.9-12.6 31.8-13.1 44.3-1.2 1.3 1.1 2.5 2.5 3.6 3.8z"/><path class="st9" d="M428.7 608.2h-120l-13.4-154.5 105.7 1.9c16.3.3 29.5 12.5 30.2 27.8l-2.5 124.8z"/><path class="st10" d="M402 460.6h-18.7v-43.4h28v34.1c-.1 5.2-4.2 9.3-9.3 9.3z"/><path class="st5" d="M429.7 544.8c-.4 0-.9-.2-1.1-.6l-10.8-20c-.3-.6-.1-1.3.5-1.6.6-.3 1.3-.1 1.6.5l10.8 20c.3.6.1 1.3-.5 1.6-.2.1-.4.1-.5.1z"/><path class="st10" d="M409.8 429.8l-30.1-1.5c-11.1-.5-19.6-10-19.1-21l3-62c.5-11.1 10-19.6 21-19.1 33.2 1.6 58.8 29.9 57.2 63.1l-.6 11.8c-.6 16.8-14.8 29.6-31.4 28.7z"/><path class="st3" d="M451 357.6l-2.3-11.3c-3.6-18.2-19.6-31.3-38.2-31.3h-31.9c-24.1 0-44.5 16.7-50.2 39-1.1 4.1-3.3 7.9-6.7 10.5-6.5 5-10.7 12.9-10.7 21.7v.2c0 8.7-4.9 16.6-12.4 21-23.1 13.3-38.1 39-36 68 2.5 35.7 31.5 64.6 67.3 66.9 42.2 2.8 77.3-30.6 77.3-72.2 0-14.1-10.9-73.7-10.9-73.7 15.5-.9 28-13.8 28-29.5v-2c0-4 3.3-7.3 7.3-7.3H451z"/><circle class="st10" cx="402.3" cy="390.5" r="14"/><path class="st10" d="M611 520.5c-2.5-5.5-9-7.9-14.5-5.5l-26.2 11.9 15.6 21.7 21.3-14.5c4.3-3 6-8.7 3.8-13.6zM647.4 511.4l7 10.5c.7 1.1.4 2.6-.7 3.4-1 .7-2.3.5-3.1-.3l-8.9-8.9c-1.4-1.4-1.4-3.7 0-5.1 1.4-1.4 3.7-1.4 5.1 0 .4.1.5.2.6.4z"/><path class="st10" d="M648.4 530.9l-4.9-10.1c-.1-.2-.2-.4-.3-.5-.2-.3-.5-.6-.9-.8-.4-.6-1.1-1-1.8-1.2l-6.5-1.4 10.3-.7c1.8-.1 3.2-1.6 3.2-3.5-.1-1.8-1.6-3.2-3.3-3.3 0 0-22.5-1.7-23.3-1.7-.3 0-1.9.1-2.2.2l-20.9 6.7 2.5 24.2 11.8-8.2c1.1-1 2.6-1.2 3.9-.6 1.5.7 3.1 1 4.8 1 3 0 5.6-1.1 7.7-2.9.7-.6 1.7-1 2.6-.9l1.7.1 6.7 8.9c.7.9 1.9 1.2 2.9.5 1-.6 1.2-1.9.7-2.9l-3.9-8 5.6 7.4c.7.9 1.9 1.2 2.9.5.9-.5 1.2-1.8.7-2.8z"/><path class="st9" d="M493.5 560.5c-1.1.5-2.3 1.1-3.3 1.8-10 6.8-12.6 20.5-5.8 30.5s20.5 12.6 30.5 5.8l75.2-50.4-17.3-24.1-79.3 36.4z"/><g><path class="st5" d="M488.7 570.5c-.3 0-.5-.1-.8-.3-.5-.4-.6-1.2-.2-1.7 3.3-4.1 15.1-13.6 15.6-14 .5-.4 1.3-.3 1.7.2.4.5.3 1.3-.2 1.7-.1.1-12.1 9.7-15.2 13.6-.2.3-.6.5-.9.5z"/></g></g><g><path class="st5" d="M435.1 625.1H293.7L280 533.7c-2.1-14.1 7.6-25.4 21.6-25.4h90.5c14.1 0 27.1 11.4 29.2 25.4l13.8 91.4z"/><path class="st6" d="M427 625.1H285.6L272 533.7c-2.1-14.1 7.6-25.4 21.6-25.4h90.5c14.1 0 27.1 11.4 29.2 25.4l13.7 91.4z"/></g><path class="st1" d="M795.9 635.2H210.7c-2.9 0-5.3-2.4-5.3-5.3s2.4-5.3 5.3-5.3h585.2c2.9 0 5.3 2.4 5.3 5.3.1 2.9-2.4 5.3-5.3 5.3z"/><ellipse transform="rotate(-27.365 351.705 326.81)" class="st3" cx="351.7" cy="326.8" rx="39.8" ry="39.8"/><g><path fill="#b1cbec" d="M663.5 542.5h82v24.9h-82z"/></g><g><path d="M411.2 430s-5.2-2-9.8-6c0 0 3.3 9.5 9.8 13.7V430z" fill="#db928a"/></g></g></switch></svg>