<svg id="Слой_1" xmlns="http://www.w3.org/2000/svg" viewBox="0 0 720 439.2"><style>.st0{fill:#fff}.st1{fill:#dbe5f8}.st2{fill:#f9faff}.st3{fill:#cddcf2}.st4{fill:#eff5ff}.st5{fill:#db928a}.st8{fill:#343339}.st9{fill:#e9a79d}.st10{fill:#a7c6e7}.st12{fill:#7597f0}</style><switch><g><path id="Фигура_553" class="st0" d="M0 219.5s9.1-72 72.8-64.6c87.9 10.1 43.2-59.4 86.1-86C211.5 36.4 247 77.5 294.4 45c77.9-53.4 101.9 8.5 134 4.6 31.6-3.8 61.8-24.9 95.3-12.7 69.9 25.3 33.4 92.8 80.8 109.2 51.1 17.7 114.2 37.5 115.4 86.9 1.3 52.9-15.5 82.5-89.1 95.4-57.3 10-9.8 63.4-86.9 83.1-44.6 11.4-65.9-5.8-105.9-2.9-55.6 4-51.1 30-105.1 30.6-68.6.8-95.6-41.2-141.6-37.9-59.9 4.3-91.3 2.9-101.6-62.5C81.2 285.5 1.4 319.6 0 219.5z"/><path class="st1" d="M278.8 226.8c0 48.2-10.5 123.8-23.5 123.8s-23.5-75.7-23.5-123.8c0-48.2 10.5-78.9 23.5-78.9 12.9-.1 23.5 30.7 23.5 78.9z"/><path class="st2" d="M255.2 351.6c-.5 0-1-.4-1-1V182c0-.5.4-1 1-1 .5 0 1 .4 1 1v168.6c0 .5-.4 1-1 1z"/><path class="st1" d="M231 249.3c16.1 36.6 33.5 97.7 23.6 102.1-9.9 4.4-43.3-49.7-59.4-86.3-16.1-36.6-18.4-63.6-8.5-67.9 9.8-4.4 28.2 15.5 44.3 52.1z"/><path class="st2" d="M254.9 352.1c-.4.2-.9 0-1.1-.4l-56.5-128.3c-.2-.4 0-.9.4-1.1.4-.2.9 0 1.1.4L255.3 351c.2.5 0 .9-.4 1.1z"/><path class="st1" d="M190.7 276.4c29.4 24.1 70.4 68.4 63.9 76.3-6.5 8-58-23.4-87.5-47.5-29.4-24.1-43-45.9-36.5-53.9 6.6-8 30.6 1 60.1 25.1z"/><path class="st2" d="M255.2 353.2c-.3.3-.7.4-1.1.1L151 268.9c-.3-.3-.4-.7-.1-1.1.3-.3.7-.4 1.1-.1L255.1 352c.3.3.4.8.1 1.2z"/><path class="st1" d="M180.5 324.1c29.7 5 75.4 19.3 74 27.3-1.3 8-49.1 6.7-78.9 1.8-29.7-5-47.6-14.6-46.3-22.7 1.4-8 21.4-11.3 51.2-6.4z"/><path class="st2" d="M255.1 351.5c-.1.3-.4.6-.7.5l-104.1-17.4c-.3-.1-.6-.4-.5-.7.1-.3.4-.6.7-.5l104.1 17.4c.3.1.6.4.5.7z"/><path class="st1" d="M276.2 249.3c-16.1 36.6-33.5 97.7-23.6 102.1 9.9 4.4 43.3-49.7 59.4-86.3 16.1-36.6 18.4-63.6 8.5-67.9-9.8-4.4-28.1 15.5-44.3 52.1z"/><path class="st2" d="M252.3 352.1c.4.2.9 0 1.1-.4l56.5-128.3c.2-.4 0-.9-.4-1.1-.4-.2-.9 0-1.1.4L251.9 351c-.2.5 0 .9.4 1.1z"/><path class="st1" d="M316.5 276.4c-29.4 24.1-70.4 68.4-63.9 76.3 6.5 8 58-23.4 87.5-47.5 29.4-24.1 43-45.9 36.5-53.9s-30.6 1-60.1 25.1z"/><path class="st2" d="M252 353.2c.3.3.7.4 1.1.1L356.2 269c.3-.3.4-.7.1-1.1-.3-.3-.7-.4-1.1-.1l-103.1 84.3c-.3.2-.3.7-.1 1.1z"/><path class="st1" d="M326.7 324.1c-29.7 5-75.4 19.3-74 27.3 1.3 8 49.1 6.7 78.9 1.8 29.7-5 47.6-14.6 46.3-22.7s-21.4-11.3-51.2-6.4z"/><path class="st2" d="M252.1 351.5c.1.3.4.6.7.5l104.1-17.4c.3-.1.6-.4.5-.7-.1-.3-.4-.6-.7-.5l-104.1 17.4c-.3.1-.5.4-.5.7z"/><path class="st3" d="M468.1 342.5c-.4.4.2 1.2.7 1 2.8-.9 8.2-2.4 15.1-3.7 3.5-.7 7.3-1.3 11.3-1.8 4.1-.5 8.3-.8 12.6-.9 4.3-.1 8.6 0 12.9.3l3.1.3c.5.1 1 .1 1.5.1l1.5.2c1 .2 2 .2 3 .4s2 .3 2.9.5c1 .1 1.9.4 2.8.6.9.2 1.9.4 2.7.6.9.2 1.8.5 2.6.7.4.1.9.2 1.3.3.4.1.8.3 1.2.4.8.2 1.6.5 2.4.7.8.2 1.6.5 2.3.7.8.2 1.5.4 2.2.6.7.3 1.4.5 2.1.7 6.2 1.9 11.2 3.9 15.5 5.3 2.1.8 4.1 1.4 5.9 1.8 1.8.5 3.5.9 5.1 1 .8.1 1.6.1 2.3.2.7 0 1.4 0 2.1-.1 1.4-.1 2.7-.4 3.9-.9 2.4-.9 4.5-2.4 6.3-4.2 1.8-1.9 3.2-4 3.8-6.5.3-1.3.4-2.7.2-4.2-.1-.8-.2-1.5-.5-2.4-.2-.8-.5-1.7-.9-2.5-.8-1.7-1.9-3.6-3.4-5.6-1.6-1.9-3.6-4-6-6.1-5-4.1-12.1-8.4-21.9-11.5-8.7-2.7-19.8-3.7-30.9-2.2-1.4.2-2.8.4-4.1.6-1.4.2-2.7.6-4.1.8l-2 .5c-.7.2-1.3.4-2 .5-1.3.4-2.7.8-4 1.2-5.3 1.7-10.3 3.8-14.9 6.1s-8.9 4.9-12.8 7.4c-3.8 2.6-7.2 5.1-10.2 7.6-5.5 5.1-9.6 9.3-11.6 11.5z"/><path class="st4" d="M469.2 344.1c6.9-4.4 14.2-8.1 21.8-11.2 7.6-3.1 15.4-5.4 23.4-7 8-1.5 16-2.1 24-1.7 8 .4 15.9 1.9 23.3 4.6.5.2 1.1-.2 1.4-.9.3-.7.1-1.4-.4-1.6-7.7-2.8-15.8-4.3-24-4.7-8.2-.4-16.5.2-24.7 1.8-8.1 1.6-16.1 4-23.9 7.1-7.7 3.1-15.2 6.9-22.3 11.4-.5.3-.5 1-.1 1.6.4.7 1 .9 1.5.6z"/><path class="st3" d="M464.1 341c-.4.6.2 1.3.8.9 3.4-2.1 9.8-6.4 17.3-13.3 3.8-3.4 7.7-7.5 11.7-12.2 4-4.7 8-10 11.6-15.9 1-1.5 1.8-3 2.7-4.5.9-1.5 1.8-3.1 2.5-4.7.8-1.6 1.6-3.2 2.4-4.9.7-1.7 1.4-3.4 2.1-5 2.6-6.8 4.9-14 6.1-21.1.8-3.6 1.1-7.2 1.5-10.7.2-1.8.2-3.5.3-5.2.1-1.7.2-3.5.1-5.1-.1-1.7-.1-3.3-.2-5-.1-1.6-.1-3.3-.4-4.8-.2-1.6-.4-3.1-.6-4.6-.2-1.5-.4-3-.8-4.4-.4-1.6-.7-3.1-1.1-4.6-.2-.7-.4-1.5-.6-2.2l-.6-2.1c-.9-2.8-1.8-5.4-2.7-7.8-1-2.4-2-4.6-3-6.7l-1.5-3c-.5-1-1.1-1.9-1.6-2.7-4.1-7.1-8.3-11.6-11.8-14.7-7.5-5.8-12.8-5.4-17.2-2.5-4.4 2.9-7 7.8-5.9 16.1.3 4.3 1.6 9.3 3.3 15.8.2.8.5 1.6.7 2.4.2.9.4 1.7.7 2.6.5 1.8 1 3.6 1.6 5.6.5 2 1 4 1.6 6.2.2.5.3 1.1.4 1.6.1.6.2 1.1.4 1.7.3 1.1.5 2.3.8 3.5.3 1 .4 2.1.6 3.2.2 1.1.4 2.2.7 3.4.3 1.1.4 2.3.6 3.5l.6 3.6c.2 1.2.3 2.5.5 3.7.1 1.3.4 2.6.5 3.9.2 2.6.5 5.3.6 8 .5 10.9-.6 22.7-3.2 34-1.3 5.7-3 11.1-4.9 16.2-1.9 5.1-4 9.9-6.1 14.1-4.1 8.2-8.2 14.5-10.5 17.7z"/><path class="st4" d="M465.4 342.4c4.2-3.9 7.9-8.1 11.5-12.5 3.5-4.4 6.8-9 9.9-13.8 3-4.8 5.7-9.7 8.1-14.8.6-1.3 1.1-2.6 1.7-3.9l.9-1.9.8-2 1.5-3.9 1.3-4c3.5-10.7 5.4-21.8 5.7-32.9.3-11.1-.9-22.2-3.6-32.8-.2-.7-.9-1.1-1.6-.9-.7.2-1.1.9-1 1.6 5.3 20.9 4.7 43.4-2.1 64.3l-1.3 3.9-1.5 3.9-.7 1.9-.8 1.9c-.6 1.3-1.1 2.5-1.7 3.8-2.4 5-5.1 9.8-8 14.5-2.9 4.7-6.2 9.2-9.7 13.5-3.5 4.3-7.2 8.5-11.2 12.2-.5.5-.6 1.3-.1 1.8.5.6 1.4.6 1.9.1z"/><path class="st5" d="M361.7 202.5c1.2-.7 3.4-.7 4.6 0l109.4 41.4c.7.4 1.4.5 2.1.5-.7 0-1.4.2-2.1.5L366.3 304c-1.2.7-2.1 1.9-2.3 3.3v0c-.2-1.4-1-2.6-2.3-3.3l-109.5-59c-.6-.3-1.2-.5-1.8-.5.6 0 1.3-.2 1.8-.5l109.5-41.5z"/><path d="M250.4 244.5h-.3-.1.4z" fill="#e0ac81"/><path d="M366.5 168.4s1.9 43.2-19.8 68.4c-24.2 28.2 115.6 34.8 115.6 34.8s-18.1-92.9-24.5-102.6-69.7-24.2-71.3-.6z" fill="#b1cbec"/><path class="st4" d="M452 315.1c-30.4 0-92.3.3-117.8 0a72.5 72.5 0 0 1-5.6-28c0-40.4 32.7-73.1 73.1-73.1 13.4 0 27.6 1.5 36.9 10 36.5 33.1 22.8 75.5 13.4 91.1z"/><ellipse class="st4" cx="401.7" cy="169" rx="33.6" ry="25.4"/><path class="st8" d="M437.8 169.2c-4.3 19.8-25.6 9.9-31 6.5-.7-.4-1.6-.3-2.2.4-11 13.3-38.1 7.5-38.1-7.1 0-15.1 15.1-27.4 35.1-27.4 19.9 0 36.1 12.1 36.2 27.2.1.2.1.3 0 .4z"/><circle class="st0" cx="390.3" cy="160.8" r="7.6"/><circle class="st8" cx="390.3" cy="160.8" r="5.4"/><circle class="st0" cx="419" cy="160.1" r="6.9"/><circle class="st8" cx="419" cy="160.1" r="4.6"/><path class="st8" d="M406.8 141.9s15.9-14.6 20.7-21.5c3.1-4.4 8.8 33.3 7.5 37.9-1.3 4.7-28.2-16.4-28.2-16.4zM388.8 144.5s-36.6-3.4-36.6-1.6c0 4.6 15.3 17.2 15.4 19.1.2 1.9 21.2-17.5 21.2-17.5"/><path class="st9" d="M401.7 167.1c.4-.7 6.7-.9 7.1-.4.5 1.1-3 3.9-3 3.9-.3.4-.8.4-1.1 0-.1 0-3.5-2.5-3-3.5z"/><path transform="rotate(-25.776 431.88 162.54)" class="st8" d="M416.4 161.9h30.9v1.4h-30.9z"/><path transform="rotate(-2.563 437.887 166.678)" class="st8" d="M426.5 166h22.7v1.4h-22.7z"/><path transform="rotate(22.301 438.28 175.95)" class="st8" d="M426.9 175.3h22.7v1.4h-22.7z"/><path transform="rotate(22.301 368.4 164.738)" class="st8" d="M357.1 164.1h22.7v1.4h-22.7z"/><path transform="matrix(.9993 .03641 -.03641 .9993 6.444 -13.134)" class="st8" d="M349 169.7h29.7v1.3H349z"/><path transform="rotate(-22.184 371.788 178.48)" class="st8" d="M356.9 177.8h29.7v1.3h-29.7z"/><path class="st10" d="M306.8 290.8c0 8.7 2.5 16.7 6.9 23.5 23.5.6 63 0 72.9.5 4.6-6.9 7.3-15.2 7.3-24.1 0-24.1-19.5-43.5-43.5-43.5s-43.6 19.5-43.6 43.6z"/><path class="st10" d="M364.9 288.8c0 9.5 2.8 18.3 7.5 25.7 25.6.7 68.7 0 79.5.6 5-7.5 7.9-16.5 7.9-26.3 0-26.2-21.3-47.5-47.5-47.5-26.1 0-47.4 21.3-47.4 47.5z"/><path class="st8" d="M345.1 240.8s21.3-19.6 27.9-17.4c2.7.9 6.8 15.1 17.4 9.5 10.6-5.6-2.6-29.2-2.6-29.2s-7.1-7.9-30.7 6.6c-23.7 14.4-12 30.5-12 30.5zM426 231.8s-3 13.4-17.5 7.4 5.1-30.8 9.3-32c5.9-1.6 8.2.3 20.2 13.1 16.1 17.2 19.2 23.2 19.6 25.5.4 2.3-1.7 16.5-19.2-1.7-12-12.2-12.4-12.3-12.4-12.3zM320.5 314.4l-.9.4c-4.7 2.3-10.4.3-12.6-4.4l-24.2-50c-2.3-4.7-.3-10.4 4.4-12.6l.9-.4c4.7-2.3 10.4-.3 12.6 4.4l24.2 50c2.3 4.6.3 10.3-4.4 12.6zM382.4 315.5l-.9.3c-5 1.4-10.3-1.5-11.7-6.5l-15.1-53.5c-1.4-5 1.5-10.3 6.5-11.7l.9-.3c5-1.4 10.3 1.5 11.7 6.5l15.1 53.5c1.4 5-1.5 10.3-6.5 11.7z"/><ellipse transform="rotate(-15.762 358.969 254.926)" class="st9" cx="358.9" cy="254.9" rx="1.8" ry="3.5"/><ellipse transform="rotate(-85.829 296.919 255.04) scale(1.00005)" class="st9" cx="296.9" cy="255" rx="3.5" ry="1.8"/><ellipse transform="rotate(-15.762 291.625 253.953)" class="st9" cx="291.6" cy="253.9" rx="1.8" ry="3.5"/><ellipse transform="rotate(-32.438 287.558 258.396)" class="st9" cx="287.6" cy="258.4" rx="1.8" ry="3.5"/><ellipse transform="rotate(-15.762 363.019 251.496)" class="st9" cx="363" cy="251.4" rx="1.8" ry="3.5"/><ellipse class="st9" cx="368.3" cy="253.9" rx="1.8" ry="3.5"/><path class="st5" d="M401.3 342.7c-.7.4-1.4.5-2.1.5-1.1 0-2.3-.4-3.1-1.3l-30.7-30.7c-.8-.8-1.3-2-1.3-3.1 0 1.2-.5 2.3-1.3 3.1L332 341.9c-.9.9-2 1.3-3.1 1.3-.7 0-1.4-.2-2.1-.5l-76.6-41.5V356.3c0 .1 0 .2.1.3v.1c0 .1.1.2.1.3v.1c0 .1.1.2.1.2s0 .1.1.1c0 .1.1.1.1.2s.1.1.1.2l.1.1.2.2.1.1.2.2.1.1.2.2.2.2.1.1c.1.1.3.2.4.2l109.4 59.1c.7.4 1.4.5 2.1.5.7 0 1.5-.2 2.1-.5l109.4-59.1c.1-.1.3-.2.4-.2l.1-.1.2-.2.2-.2.1-.1.2-.2.1-.1.2-.2.1-.1c0-.1.1-.1.1-.2s.1-.1.1-.2c0 0 0-.1.1-.1 0-.1.1-.2.1-.2v-.1c0-.1.1-.2.1-.3v-.1c0-.1.1-.2.1-.3v-.2-.2-54.7l-76.3 41.5z"/><path class="st9" d="M511.4 276.5c1 1 1.4 2.4 1.2 3.8-.2 1.4-1 2.6-2.3 3.3l-109.1 59.1c-.7.4-1.4.5-2.1.5-1.1 0-2.3-.4-3.1-1.3l-30.7-30.7c-.8-.8-1.3-2-1.3-3.1v-.6c.2-1.4 1-2.6 2.3-3.3L475.7 245c.7-.4 1.4-.5 2.1-.5 1.2 0 2.3.5 3.1 1.3l30.5 30.7z"/><path d="M363.9 307.4v.6c0 1.2-.5 2.3-1.3 3.1L332 341.9c-.9.9-2 1.3-3.1 1.3-.7 0-1.4-.2-2.1-.5l-109.1-59.1c-1.2-.7-2.1-1.9-2.3-3.3-.2-1.4.3-2.8 1.2-3.8l30.4-30.7c.8-.8 1.9-1.3 3-1.3h.4c.6 0 1.3.2 1.8.5l109.4 59.1c1.3.7 2.1 1.9 2.3 3.3z" fill="#ecbfbe"/><path class="st9" d="M362.7 311.2L332 341.9c-.9.9-2 1.3-3.1 1.3-.7 0-1.4-.2-2.1-.5l-76.6-41.5V356.3c0 .1 0 .2.1.3v.1c0 .1.1.2.1.3v.1c0 .1.1.2.1.2s0 .1.1.1c0 .1.1.1.1.2s.1.1.1.2l.1.1.2.2.1.1.2.2.1.1.2.2.2.2.1.1c.1.1.3.2.4.2l109.4 59.1c.7.4 1.4.5 2.1.5V308c.1 1.2-.4 2.3-1.2 3.2z"/><path class="st12" d="M316.8 122.7c-8.1-2-35.4-16.6-46.1-21.9 18-10.1 41.4-29.1 30.3-64 8.5 4.3 36.1 16.9 46.1 21.9 3.2 31.6-13.6 58-30.3 64z"/><path transform="rotate(24.687 324.494 60.9)" class="st8" d="M308.6 59.3h31.9v3.2h-31.9z"/><path transform="rotate(24.687 323.144 70.332)" class="st8" d="M307.2 68.7h31.9v3.2h-31.9z"/><path transform="rotate(24.687 321.842 79.751)" class="st8" d="M305.9 78.1h31.9v3.2h-31.9z"/><path transform="rotate(24.687 318.103 87.883)" class="st8" d="M302.2 86.3h31.9v3.2h-31.9z"/><path transform="rotate(24.687 312.811 96.014)" class="st8" d="M296.9 94.4h31.9v3.2h-31.9z"/><path class="st12" d="M509.5 175.3c9.3-2.3 36.2-10.9 48.4-17-20.6-11.6-47.5-33.5-34.8-73.5-9.8 4.9-41.4 19.4-53 25.1-3.7 36.4 20.3 58.6 39.4 65.4z"/><path transform="rotate(155.313 496.083 112.49)" class="st8" d="M477.8 110.6h36.6v3.7h-36.6z"/><path transform="rotate(155.313 497.634 123.322)" class="st8" d="M479.3 121.5h36.6v3.7h-36.6z"/><path transform="rotate(155.313 499.13 134.14)" class="st8" d="M480.8 132.3h36.6v3.7h-36.6z"/><path transform="rotate(155.313 503.422 143.478)" class="st8" d="M485.1 141.6h36.6v3.7h-36.6z"/><path transform="rotate(155.313 511.5 151.897)" class="st8" d="M495.4 150h32.2v3.7h-32.2z"/><path class="st12" d="M464 38c-1.3-4.8-27.3-40.1-30.7-37.8-12.5 14-40.7 30.3-68.3 22.4 5.2 9.7 20.5 40.9 26.5 52.3 36.3 2.6 66.1-17.6 72.5-36.9z"/><path transform="rotate(63.781 393.27 48.712)" class="st8" d="M375 46.9h36.6v3.7H375z"/><path transform="rotate(63.781 404.057 46.872)" class="st8" d="M385.7 45h36.6v3.7h-36.6z"/><path transform="rotate(63.781 414.83 45.089)" class="st8" d="M396.5 43.2h36.6v3.7h-36.6z"/><path transform="rotate(63.781 424.052 40.548)" class="st8" d="M405.7 38.7h36.6v3.7h-36.6z"/><path transform="rotate(63.781 433.225 34.223)" class="st8" d="M414.9 32.4h36.6v3.7h-36.6z"/><g><path class="st8" d="M270.2 351.8c2.3.5 4 1.1 5.2 1.7l.5-4.3-15.5-7.5.3-2.8 18-11 7 3.4-1.9 17.8 5.2 2.5-1.2 3.4-4.5-2.1-.4 4.3c1.6.8 3.2 1.9 4.7 3.1l-.1.9-17.4-8.4.1-1zm6-6.4l1.4-13.5-12.7 8.1 11.3 5.4zM291.4 348.6c1-9.5 6-12 15-7.7 4.7 2.3 8 5.2 9.9 8.7 1.9 3.5 2.6 7.5 2.1 12s-1.9 7.5-4.3 8.9c-2.4 1.4-6 1-10.7-1.3-9-4.3-13-11.2-12-20.6zm17 17.6c1.1-1.7 1.9-4.4 2.3-8.3.4-3.9.3-7.1-.4-9.6s-2.1-4.3-4.1-5.3c-2.1-1-3.7-.7-4.8 1-1.1 1.7-1.9 4.4-2.3 8.3-.4 3.9-.3 7.1.4 9.6s2.1 4.3 4.1 5.3c2.1 1 3.7.7 4.8-1zM330.6 380.9c2.3.5 4 1.1 5.2 1.7l.5-4.3-15.5-7.5.3-2.8 18-11 7 3.4-1.9 17.8 5.2 2.5-1.2 3.4-4.5-2.1-.4 4.3c1.6.8 3.2 1.9 4.7 3.1l-.1.9-17.4-8.4.1-1zm6-6.4L338 361l-12.7 8.1 11.3 5.4z"/></g></g></switch></svg>