<svg id="Слой_1" xmlns="http://www.w3.org/2000/svg" viewBox="0 0 1023.4 933"><style>.st0{fill:#fff}.st1{fill:#dbe5f8}.st2{fill:#f9faff}.st3{fill:#cddcf2}.st4{fill:#eff5ff}.st5{fill:#db928a}.st8{fill:#343339}.st9{fill:#e9a79d}.st10{fill:#a7c6e7}.st12{fill:#7597f0}</style><switch><g><path id="Фигура_553" class="st0" d="M0 433s17-134.1 135.7-120.4c163.8 18.9 101.2-87.3 160.3-160.2 81.8-100.9 228.8 18.3 317.1-42.3C657.7 79.5 757.8 3.5 822.5.6c34.7-4.1 113.7 12.9 200.6 51.6 1.1 243.3-1.2 819.9-1.2 875-3.8 1.2-4.7 2.3-8.9 3.4-83 21.3-111.8-106.3-186.2-100.9-103.6 7.5-139.9 88-240.5 89.1-127.8 1.4-144.4-153.1-230.1-146.9-111.7 8.1-169.9 5.4-189.3-116.4C151.1 556.1 2.6 619.7 0 433z"/><path class="st1" d="M458.4 455.8c0 63.7-13.9 163.8-31.1 163.8-17.2 0-31.1-100.1-31.1-163.8s13.9-104.4 31.1-104.4c17.2 0 31.1 40.7 31.1 104.4z"/><path class="st2" d="M427.3 620.9c-.7 0-1.3-.6-1.3-1.3v-223c0-.7.6-1.3 1.3-1.3.7 0 1.3.6 1.3 1.3v223c0 .7-.6 1.3-1.3 1.3z"/><path class="st1" d="M395.3 485.6c21.3 48.5 44.3 129.2 31.2 135s-57.2-65.7-78.6-114.1c-21.3-48.5-24.4-84.1-11.3-89.8 13.1-5.8 37.3 20.5 58.7 68.9z"/><path class="st2" d="M426.9 621.6c-.5.2-1.2 0-1.4-.5l-74.7-169.6c-.2-.5 0-1.2.5-1.4.5-.2 1.2 0 1.4.5l74.7 169.6c.2.6 0 1.2-.5 1.4z"/><path class="st1" d="M341.9 521.4c38.9 31.9 93.2 90.4 84.6 100.9-8.6 10.5-76.8-31-115.7-62.9-38.9-31.9-56.9-60.7-48.3-71.3 8.6-10.4 40.5 1.4 79.4 33.3z"/><path class="st2" d="M427.3 623c-.4.4-1 .5-1.4.1L289.5 511.6c-.4-.4-.5-1-.1-1.4.4-.4 1-.5 1.4-.1l136.4 111.5c.4.3.4 1 .1 1.4z"/><path class="st1" d="M328.4 584.6c39.3 6.6 99.7 25.5 97.9 36.1-1.8 10.6-65 8.9-104.3 2.4-39.3-6.6-63-19.4-61.3-30s28.4-15.1 67.7-8.5z"/><path class="st2" d="M427.1 620.8c-.1.4-.5.7-.9.7l-137.7-23c-.4-.1-.7-.5-.7-.9.1-.4.5-.7.9-.7l137.7 23c.5.1.8.5.7.9z"/><path class="st1" d="M455.1 485.6c-21.3 48.5-44.3 129.2-31.2 135 13.1 5.8 57.2-65.7 78.6-114.1 21.3-48.5 24.4-84.1 11.3-89.8-13.1-5.8-37.4 20.5-58.7 68.9z"/><path class="st2" d="M423.5 621.6c.5.2 1.2 0 1.4-.5l74.7-169.6c.2-.5 0-1.2-.5-1.4-.5-.2-1.2 0-1.4.5L423 620.2c-.3.6-.1 1.2.5 1.4z"/><path class="st1" d="M508.4 521.4c-38.9 31.9-93.2 90.4-84.6 100.9 8.6 10.5 76.8-31 115.7-62.9 38.9-31.9 56.9-60.7 48.3-71.3-8.6-10.4-40.5 1.4-79.4 33.3z"/><path class="st2" d="M423.1 623c.4.4 1 .5 1.4.1l136.4-111.5c.4-.4.5-1 .1-1.4-.4-.4-1-.5-1.4-.1L423.2 621.6c-.4.3-.5 1-.1 1.4z"/><path class="st1" d="M521.9 584.6c-39.3 6.6-99.7 25.5-97.9 36.1 1.8 10.6 65 8.9 104.3 2.4 39.3-6.6 63-19.4 61.3-30s-28.4-15.1-67.7-8.5z"/><path class="st2" d="M423.2 620.8c.1.4.5.7.9.7l137.7-23c.4-.1.7-.5.7-.9-.1-.4-.5-.7-.9-.7l-137.7 23c-.5.1-.8.5-.7.9z"/><path class="st3" d="M708.9 608.9c-.5.5.2 1.6.9 1.4 3.7-1.2 10.9-3.2 20-4.9 4.6-.9 9.6-1.7 15-2.3 5.4-.6 11-1 16.7-1.2 5.7-.1 11.4 0 17 .4l4.1.4c.7.1 1.4.1 2 .2l2 .3c1.3.2 2.7.3 4 .5 1.3.2 2.6.5 3.9.7 1.3.2 2.5.5 3.7.8 1.2.3 2.4.5 3.6.8 1.2.3 2.3.6 3.5.9.6.1 1.1.3 1.7.4.6.2 1.1.3 1.6.5 1.1.3 2.2.6 3.2.9 1.1.3 2.1.7 3.1 1 1 .3 2 .6 3 .8.9.3 1.9.7 2.8.9 8.3 2.6 14.8 5.2 20.5 7.1 2.8 1.1 5.4 1.9 7.8 2.4 2.4.7 4.6 1.1 6.7 1.3 1.1.1 2.1.2 3 .2 1 0 1.9 0 2.8-.1 1.8-.2 3.5-.6 5.1-1.1 3.2-1.2 6-3.1 8.4-5.6 2.4-2.5 4.2-5.3 5-8.7.4-1.7.5-3.5.2-5.5-.1-1-.3-2-.6-3.1s-.7-2.2-1.2-3.3c-1.1-2.3-2.6-4.7-4.5-7.4-2.1-2.6-4.7-5.2-7.9-8.1-6.6-5.4-16-11.1-29-15.2-11.5-3.6-26.2-4.9-40.8-2.9-1.8.3-3.6.5-5.5.8-1.8.3-3.6.7-5.4 1.1l-2.7.6c-.9.2-1.8.5-2.7.7-1.8.5-3.5 1-5.3 1.5-7 2.3-13.6 5-19.7 8-6.1 3.1-11.8 6.4-16.9 9.8-5.1 3.4-9.6 6.8-13.5 10-7.6 6.5-12.9 12-15.6 15z"/><path class="st4" d="M710.3 611c9.1-5.8 18.8-10.7 28.9-14.8 10-4.1 20.4-7.2 30.9-9.2 10.5-2 21.2-2.8 31.8-2.3 10.6.5 21 2.5 30.9 6.1.6.2 1.5-.3 1.8-1.2.4-.9.1-1.8-.5-2.1-10.2-3.6-20.9-5.7-31.8-6.3-10.9-.6-21.9.3-32.6 2.4-10.8 2.1-21.4 5.3-31.6 9.4-10.2 4.1-20.1 9.1-29.5 15.1-.6.4-.7 1.4-.2 2.1.4.9 1.3 1.2 1.9.8z"/><path class="st3" d="M703.6 606.9c-.5.8.3 1.7 1.1 1.2 4.5-2.8 13-8.5 22.9-17.6 5-4.5 10.2-9.9 15.5-16.1 5.2-6.2 10.6-13.2 15.3-21.1 1.3-1.9 2.4-3.9 3.5-6 1.1-2 2.3-4.1 3.3-6.2 1-2.1 2.1-4.3 3.1-6.5.9-2.2 1.9-4.4 2.8-6.7 3.5-9 6.5-18.5 8.1-28 1-4.7 1.4-9.5 2-14.1.3-2.3.3-4.6.4-6.9.1-2.3.2-4.6.2-6.8l-.3-6.6c-.1-2.2-.2-4.3-.5-6.4-.3-2.1-.5-4.1-.8-6.1-.3-2-.5-4-1-5.8-.5-2.1-1-4.1-1.5-6.1-.2-1-.5-2-.7-2.9-.2-1-.5-1.9-.8-2.8-1.2-3.7-2.4-7.1-3.5-10.4-1.3-3.2-2.7-6.1-3.9-8.9-.7-1.4-1.3-2.7-1.9-4-.7-1.3-1.4-2.5-2.1-3.6-5.4-9.4-11-15.4-15.6-19.4-9.9-7.7-16.9-7.1-22.7-3.3-5.8 3.8-9.2 10.3-7.9 21.3.3 5.6 2.1 12.3 4.3 20.8.3 1 .6 2.1 1 3.2.3 1.1.6 2.3.9 3.4.6 2.4 1.4 4.8 2.1 7.4.6 2.6 1.3 5.3 2.1 8.2.2.7.4 1.4.5 2.2.2.7.3 1.5.5 2.2.3 1.5.7 3 1 4.6.4 1.4.6 2.8.8 4.3.3 1.5.6 2.9.9 4.5.4 1.5.5 3.1.8 4.6.3 1.6.5 3.2.8 4.8.3 1.6.4 3.3.6 5 .2 1.7.5 3.4.6 5.1.2 3.4.7 7 .7 10.6.7 14.4-.7 30.1-4.3 45-1.7 7.5-4 14.7-6.5 21.5-2.5 6.8-5.2 13.1-8 18.7-5.3 11.1-10.7 19.5-13.8 23.7z"/><path class="st4" d="M705.4 608.7c5.5-5.2 10.5-10.7 15.2-16.6 4.7-5.8 9.1-11.9 13-18.2 4-6.3 7.6-12.9 10.8-19.6.8-1.7 1.5-3.4 2.3-5.1l1.1-2.6 1-2.6 2-5.2 1.8-5.3c4.7-14.1 7.1-28.8 7.6-43.5s-1.2-29.3-4.7-43.4c-.2-.9-1.1-1.5-2.1-1.2-.9.3-1.5 1.2-1.3 2.1 6.9 27.6 6.3 57.4-2.8 85l-1.7 5.2-2 5.1-1 2.5-1.1 2.5c-.7 1.7-1.5 3.3-2.2 5-3.2 6.6-6.7 13-10.6 19.2-3.9 6.2-8.2 12.2-12.8 17.9-4.6 5.7-9.5 11.2-14.8 16.2-.7.7-.8 1.7-.2 2.4.6.9 1.7.9 2.5.2z"/><path class="st5" d="M568.1 423.7c1.6-.9 4.5-.9 6.1 0L719 478.5c.9.5 1.8.7 2.8.7-1 0-1.9.2-2.8.7l-144.7 78.2c-1.6.9-2.7 2.5-3 4.3 0 .3-.1.6-.1.8 0-.3 0-.6-.1-.8-.3-1.8-1.4-3.4-3-4.3l-144.7-78.2c-.8-.4-1.6-.6-2.4-.7.8-.1 1.7-.3 2.4-.7l144.7-54.8z"/><path d="M420.9 479.2h-.4-.1.5z" fill="#e0ac81"/><path d="M574.5 378.6s2.5 57.2-26.2 90.5c-32 37.2 152.9 46.1 152.9 46.1s-24-122.8-32.4-135.7c-8.3-12.9-92.2-32.1-94.3-.9z" fill="#b1cbec"/><path class="st4" d="M687.5 572.6c-40.3 0-122.1.3-155.9 0-4.7-11.4-7.4-23.9-7.4-37.1 0-53.4 43.3-96.7 96.7-96.7 17.8 0 36.5 2 48.8 13.2 48.4 43.9 30.3 100 17.8 120.6z"/><ellipse class="st4" cx="621" cy="379.4" rx="44.4" ry="33.5"/><path class="st8" d="M668.9 379.7c-5.7 26.1-33.8 13.1-41 8.6-.9-.6-2.2-.4-2.9.5-14.6 17.7-50.4 10-50.4-9.4 0-20 20-36.2 46.4-36.2s47.7 16.1 47.9 35.9v.6z"/><circle class="st0" cx="606" cy="368.5" r="10"/><circle class="st8" cx="606" cy="368.5" r="7.1"/><circle class="st0" cx="644" cy="367.7" r="9.2"/><circle class="st8" cx="644" cy="367.7" r="6.1"/><path class="st8" d="M627.8 343.6s21-19.4 27.4-28.4c4.1-5.8 11.7 44.1 10 50.2-1.8 6-37.4-21.8-37.4-21.8zM604 347s-48.4-4.5-48.4-2.1c0 6.1 20.2 22.8 20.4 25.3.2 2.5 28-23.2 28-23.2"/><path class="st9" d="M621 376.8c.5-.9 8.8-1.2 9.4-.5.7 1.5-4 5.1-4 5.1-.4.5-1.1.5-1.5 0 0 .1-4.5-3.2-3.9-4.6z"/><path transform="rotate(-25.776 660.962 370.833)" class="st8" d="M640.6 370h40.9v1.8h-40.9z"/><path transform="rotate(-2.563 668.906 376.325)" class="st8" d="M653.9 375.4H684v1.8h-30.1z"/><path transform="rotate(22.301 669.423 388.574)" class="st8" d="M654.4 387.7h30.1v1.8h-30.1z"/><path transform="rotate(22.301 576.99 373.745)" class="st8" d="M562 372.9h30.1v1.8H562z"/><path transform="matrix(.9993 .03641 -.03641 .9993 14.258 -20.535)" class="st8" d="M551.3 380.3h39.3v1.8h-39.3z"/><path transform="rotate(-22.184 581.477 391.93)" class="st8" d="M561.8 391.1h39.3v1.8h-39.3z"/><path class="st10" d="M495.5 540.5c0 11.5 3.4 22.2 9.1 31.1 31.1.9 83.3 0 96.5.7 6.1-9.1 9.6-20.1 9.6-31.9 0-31.8-25.8-57.6-57.6-57.6s-57.6 25.8-57.6 57.7z"/><path class="st10" d="M572.4 537.9c0 12.5 3.7 24.2 10 33.9 33.9.9 90.9 0 105.2.8 6.6-9.9 10.5-21.9 10.5-34.7 0-34.7-28.1-62.8-62.8-62.8-34.8 0-62.9 28.1-62.9 62.8z"/><path class="st8" d="M546.1 474.3s28.2-26 36.9-23c3.6 1.2 9 19.9 23.1 12.5s-3.4-38.6-3.4-38.6-9.4-10.4-40.7 8.7c-31.3 19.2-15.9 40.4-15.9 40.4zM653.1 462.4s-4 17.7-23.1 9.7 6.7-40.7 12.2-42.3c7.8-2.2 10.9.3 26.7 17.3 21.2 22.8 25.3 30.7 25.9 33.8.6 3-2.3 21.9-25.4-2.2-15.6-16.1-16.3-16.3-16.3-16.3zM513.1 571.9c-6.5 3.1-14.4.4-17.5-6.1l-31.4-65c-3.1-6.5-.4-14.4 6.1-17.5 6.5-3.1 14.4-.4 17.5 6.1l31.4 65c3.1 6.5.4 14.4-6.1 17.5zM594.9 573.4c-7 2-14.3-2.1-16.2-9.1L559 494.8c-2-7 2.1-14.3 9.1-16.2 7-2 14.3 2.1 16.2 9.1l19.6 69.5c2 6.9-2.1 14.2-9 16.2z"/><ellipse transform="rotate(-15.762 564.535 493.078)" class="st9" cx="564.4" cy="493" rx="2.3" ry="4.7"/><ellipse transform="rotate(-85.829 482.445 493.2) scale(1.00005)" class="st9" cx="482.4" cy="493.2" rx="4.7" ry="2.3"/><ellipse transform="rotate(-15.762 475.456 491.79)" class="st9" cx="475.4" cy="491.7" rx="2.3" ry="4.7"/><ellipse transform="rotate(-32.438 470.053 497.63)" class="st9" cx="470.1" cy="497.7" rx="2.3" ry="4.7"/><ellipse transform="rotate(-15.762 569.892 488.541)" class="st9" cx="569.8" cy="488.5" rx="2.3" ry="4.7"/><ellipse class="st9" cx="576.9" cy="491.7" rx="2.3" ry="4.7"/><path class="st5" d="M620.5 609.1c-.9.5-1.8.7-2.8.7-1.5 0-3-.6-4.1-1.7L573 567.5c-1.1-1.1-1.7-2.6-1.7-4.2 0 1.5-.6 3-1.7 4.2L529 608.1c-1.1 1.1-2.6 1.7-4.1 1.7-1 0-1.9-.2-2.8-.7l-101.3-54.9V627.1c0 .1.1.3.1.4v.2c0 .1.1.2.1.4 0 .1 0 .1.1.2 0 .1.1.2.1.3 0 .1.1.1.1.2s.1.2.1.3c0 .1.1.2.1.2 0 .1.1.1.1.2.1.1.1.2.2.3l.1.1.3.3.1.1c.1.1.2.2.3.2.1.1.2.1.3.2.1 0 .1.1.2.1.2.1.3.2.5.3l144.7 78.2c.9.5 1.8.7 2.8.7 1 0 1.9-.2 2.8-.7l144.7-78.2c.2-.1.4-.2.5-.3.1 0 .1-.1.2-.1.1-.1.2-.1.3-.2.1-.1.2-.2.3-.2l.1-.1.3-.3.1-.1c.1-.1.1-.2.2-.3 0-.1.1-.1.1-.2.1-.1.1-.2.1-.2.1-.1.1-.2.1-.3 0-.1.1-.1.1-.2.1-.1.1-.2.1-.3 0-.1 0-.1.1-.2 0-.1.1-.2.1-.4v-.2c0-.1.1-.2.1-.4v-.3-.3-72.3l-100.9 54.9z"/><path class="st9" d="M766.2 521.6c1.3 1.3 1.9 3.2 1.6 5-.3 1.8-1.4 3.4-3 4.3l-144.3 78.2c-.9.5-1.8.7-2.8.7-1.5 0-3-.6-4.1-1.7L573 567.5c-1.1-1.1-1.7-2.6-1.7-4.2 0-.3 0-.6.1-.8.3-1.8 1.4-3.4 3-4.3L719 479.9c.9-.5 1.8-.7 2.8-.7 1.5 0 3 .6 4.2 1.7l40.2 40.7z"/><path d="M571.1 562.5c0 .3.1.6.1.8 0 1.5-.6 3-1.7 4.2l-40.6 40.6c-1.1 1.1-2.6 1.7-4.1 1.7-1 0-1.9-.2-2.8-.7l-144.3-78.2c-1.6-.9-2.7-2.5-3-4.3-.3-1.8.3-3.7 1.6-5l40.2-40.6c1.1-1.1 2.5-1.7 4-1.7h.5c.8.1 1.7.3 2.4.7l144.7 78.2c1.6.8 2.7 2.4 3 4.3z" fill="#ecbfbe"/><path class="st9" d="M569.4 567.5l-40.6 40.6c-1.1 1.1-2.6 1.7-4.1 1.7-1 0-1.9-.2-2.8-.7l-101.3-54.9V627.1c0 .1.1.3.1.4v.2c0 .1.1.2.1.4 0 .1 0 .1.1.2 0 .1.1.2.1.3 0 .1.1.1.1.2s.1.2.1.3c0 .1.1.2.1.2 0 .1.1.1.1.2.1.1.1.2.2.3l.1.1.3.3.1.1c.1.1.2.2.3.2.1.1.2.1.3.2.1 0 .1.1.2.1.2.1.3.2.5.3l144.7 78.2c.9.5 1.8.7 2.8.7V563.3c.3 1.6-.3 3.1-1.5 4.2z"/><path class="st12" d="M508.7 318.1c-10.7-2.6-46.9-22-61-28.9 23.8-13.4 54.7-38.5 40.1-84.6 11.3 5.6 47.7 22.4 61 28.9 4.3 41.8-18 76.7-40.1 84.6z"/><path transform="rotate(24.687 518.915 236.402)" class="st8" d="M497.8 234.2H540v4.3h-42.2z"/><path transform="rotate(24.687 517.128 248.879)" class="st8" d="M496.1 246.7h42.2v4.3h-42.2z"/><path transform="rotate(24.687 515.406 261.338)" class="st8" d="M494.3 259.2h42.2v4.3h-42.2z"/><path transform="rotate(24.687 510.461 272.094)" class="st8" d="M489.4 269.9h42.2v4.3h-42.2z"/><path transform="rotate(24.687 503.461 282.85)" class="st8" d="M482.4 280.7h42.2v4.3h-42.2z"/><path class="st12" d="M763.6 387.7c12.3-3 47.8-14.5 64-22.4-27.3-15.4-62.9-44.3-46.1-97.2-13 6.5-54.8 25.7-70.1 33.2-4.7 48 26.9 77.4 52.2 86.4z"/><path transform="rotate(155.313 745.89 304.642)" class="st8" d="M721.7 302.2h48.4v4.9h-48.4z"/><path transform="rotate(155.313 747.94 318.97)" class="st8" d="M723.7 316.5h48.4v4.9h-48.4z"/><path transform="rotate(155.313 749.918 333.28)" class="st8" d="M725.7 330.8h48.4v4.9h-48.4z"/><path transform="rotate(155.313 755.597 345.632)" class="st8" d="M731.4 343.2h48.4v4.9h-48.4z"/><path transform="rotate(155.313 766.28 356.769)" class="st8" d="M745 354.3h42.6v4.9H745z"/><path class="st12" d="M703.4 206c-1.7-6.4-36.1-53.1-40.7-50.1-16.6 18.6-53.9 40.1-90.4 29.6 6.8 12.8 27.1 54.1 35.1 69.1 48.2 3.7 87.6-23 96-48.6z"/><path transform="rotate(63.781 609.896 220.282)" class="st8" d="M585.7 217.8h48.4v4.9h-48.4z"/><path transform="rotate(63.781 624.164 217.849)" class="st8" d="M599.9 215.4h48.4v4.9h-48.4z"/><path transform="rotate(63.781 638.416 215.49)" class="st8" d="M614.2 213h48.4v4.9h-48.4z"/><path transform="rotate(63.781 650.613 209.483)" class="st8" d="M626.4 207h48.4v4.9h-48.4z"/><path transform="rotate(63.781 662.746 201.117)" class="st8" d="M638.5 198.7h48.4v4.9h-48.4z"/><g><path class="st8" d="M447 621.2c3 .7 5.3 1.4 6.8 2.2l.6-5.7-20.5-9.9.4-3.8 23.8-14.5 9.2 4.5-2.5 23.6 6.9 3.3-1.5 4.5-5.9-2.8-.6 5.7c2.1 1.1 4.2 2.5 6.2 4.1l-.1 1.3-23-11.1.2-1.4zm8-8.5l1.9-17.9h-.1L440 605.5l15 7.2zM475.2 616.9c1.3-12.5 7.9-15.9 19.8-10.2 6.2 3 10.6 6.8 13.1 11.5 2.5 4.6 3.4 9.9 2.8 15.9s-2.5 9.9-5.7 11.8c-3.2 1.9-7.9 1.3-14.1-1.7-12-5.7-17.3-14.8-15.9-27.3zm22.5 23.3c1.5-2.2 2.5-5.9 3-11s.3-9.4-.6-12.8c-.9-3.4-2.7-5.7-5.5-7-2.7-1.3-4.9-.9-6.4 1.3s-2.5 5.9-3 11-.3 9.4.6 12.8c.9 3.4 2.7 5.7 5.5 7 2.8 1.4 4.9.9 6.4-1.3zM526.9 659.7c3 .7 5.3 1.4 6.8 2.2l.6-5.7-20.5-9.9.4-3.8L538 628l9.2 4.5-2.5 23.6 6.9 3.3-1.5 4.5-5.9-2.8-.6 5.7c2.1 1.1 4.2 2.5 6.2 4.1l-.1 1.3-23-11.1.2-1.4zm8-8.5l1.9-17.9h-.1L519.9 644l15 7.2z"/></g></g></switch></svg>