<svg id="Слой_1" xmlns="http://www.w3.org/2000/svg" viewBox="0 0 491.7 296.1"><style>.st1{fill:#dbe5f8}.st2{fill:#f9faff}.st3{fill:#eff5ff}.st4{fill:#cddcf2}.st6{fill:#343339}.st8{fill:#b1cbec}.st9{fill:#e9a79d}.st10{fill:#597fd8}.st12{fill:#7597f0}.st16{fill:#96badd}.st17{fill:#a7c6e7}</style><switch><g><g id="img"><path id="Фигура_553" d="M0 146s6.2-49.2 49.8-44.1c60.1 6.9 29.5-40.6 58.8-58.7 35.9-22.2 60.2 5.9 92.5-16.3 53.2-36.5 69.6 5.8 91.5 3.1 21.6-2.6 42.2-17 65.1-8.7 47.7 17.3 22.8 63.4 55.2 74.6 34.9 12.1 78 25.6 78.8 59.4.9 36.2-10.6 56.4-60.8 65.2-39.1 6.8-6.7 43.3-59.3 56.8-30.4 7.8-45-4-72.3-2-38 2.8-34.9 20.5-71.8 20.9-46.9.5-65.3-28.2-96.7-25.9-40.9 3-62.3 2-69.4-42.7C55.4 191.1 1 214.4 0 146z" fill="#fff"/></g><path class="st1" d="M396.4 267.7H106.6c-.6 0-1-.5-1-1 0-.6.5-1 1-1h289.8c.6 0 1 .5 1 1 .1.6-.4 1-1 1zM346.3 198.1c0 24.8-5.4 63.8-12.1 63.8s-12.1-39-12.1-63.8 5.4-40.7 12.1-40.7 12.1 15.9 12.1 40.7z"/><path class="st2" d="M334.2 262.5c-.3 0-.5-.2-.5-.5v-86.9c0-.3.2-.5.5-.5s.5.2.5.5V262c0 .2-.2.5-.5.5z"/><path class="st1" d="M321.7 209.8c8.3 18.9 17.2 50.4 12.2 52.6-5.1 2.2-22.3-25.6-30.6-44.5s-9.5-32.8-4.4-35c5-2.3 14.5 8 22.8 26.9z"/><path class="st2" d="M334 262.8c-.2.1-.5 0-.5-.2l-29.1-66.1c-.1-.2 0-.5.2-.5.2-.1.5 0 .5.2l29.1 66.1c.1.1 0 .4-.2.5z"/><path class="st1" d="M300.9 223.7c15.2 12.4 36.3 35.2 33 39.3-3.4 4.1-29.9-12.1-45.1-24.5-15.2-12.4-22.2-23.7-18.8-27.8 3.3-4 15.7.6 30.9 13z"/><path class="st2" d="M334.2 263.3c-.1.2-.4.2-.6.1l-53.1-43.5c-.2-.1-.2-.4-.1-.6.1-.2.4-.2.6-.1l53.1 43.5c.2.2.2.4.1.6z"/><path class="st1" d="M295.7 248.3c15.3 2.6 38.8 9.9 38.2 14.1-.7 4.1-25.3 3.5-40.7.9-15.3-2.6-24.6-7.5-23.9-11.7.7-4.1 11-5.8 26.4-3.3z"/><path class="st2" d="M334.1 262.4c0 .2-.2.3-.4.3l-53.7-9c-.2 0-.3-.2-.3-.4s.2-.3.4-.3l53.7 9c.2.1.4.3.3.4z"/><path class="st1" d="M345 209.8c-8.3 18.9-17.2 50.4-12.2 52.6 5.1 2.2 22.3-25.6 30.6-44.5s9.5-32.8 4.4-35c-5-2.3-14.5 8-22.8 26.9z"/><path class="st2" d="M332.7 262.8c.2.1.5 0 .5-.2l29.1-66.1c.1-.2 0-.5-.2-.5-.2-.1-.5 0-.5.2l-29.1 66.1c-.1.1 0 .4.2.5z"/><path class="st1" d="M365.8 223.7c-15.2 12.4-36.3 35.2-33 39.3 3.4 4.1 29.9-12.1 45.1-24.5 15.2-12.4 22.2-23.7 18.8-27.8-3.3-4-15.7.6-30.9 13z"/><path class="st2" d="M332.5 263.3c.1.2.4.2.6.1l53.1-43.5c.2-.1.2-.4.1-.6-.1-.2-.4-.2-.6-.1l-53.1 43.5c-.2.2-.2.4-.1.6z"/><g><path class="st1" d="M371.1 248.3c-15.3 2.6-38.8 9.9-38.2 14.1.7 4.1 25.3 3.5 40.7.9 15.3-2.6 24.6-7.5 23.9-11.7-.8-4.1-11.1-5.8-26.4-3.3z"/><path class="st2" d="M332.6 262.4c0 .2.2.3.4.3l53.7-9c.2 0 .3-.2.3-.4s-.2-.3-.4-.3l-53.7 9c-.2.1-.3.3-.3.4z"/></g><g><path class="st3" d="M210.5 138.3c-2.5-3.8-3.4-8.4-2.2-12.7.8-2.9 1.3-6 1.3-9.1 0-6.8-2-13-5.5-18.3-2.5-3.8-2.8-8.5-1.2-12.7 1.3-3.3 2-6.8 2-10.5 0-15.8-12.8-33.6-28.7-33.6-15.8 0-28.7 17.8-28.7 33.6 0 3.7.7 7.3 2 10.5 1.7 4.2 1.3 8.9-1.2 12.7-3.5 5.2-5.5 11.5-5.5 18.3 0 3.2.4 6.2 1.3 9.1 1.2 4.3.3 9-2.2 12.7-4.3 6.5-6.8 14.3-6.8 22.6 0 22.7 18.4 35.9 41 35.9 22.7 0 41-13.2 41-35.9.2-8.4-2.3-16.1-6.6-22.6z"/><path class="st1" d="M176.3 267.1c-.9 0-1.6-.7-1.6-1.6V81.9c0-.9.7-1.6 1.6-1.6.9 0 1.6.7 1.6 1.6v183.5c0 1-.7 1.7-1.6 1.7z"/></g><g><path class="st4" d="M155.2 263.2c0 .4-.7.5-.8.1-.8-1.7-2.6-4.9-5-8.7-1.3-1.9-2.7-4-4.3-6.1-1.6-2.1-3.4-4.2-5.3-6.3-1.9-2.1-3.9-4.1-6-5.9l-1.6-1.3c-.3-.2-.5-.4-.8-.7l-.8-.6c-.5-.4-1-.8-1.6-1.2-.5-.4-1.1-.8-1.6-1.1-.5-.4-1-.7-1.6-1.1-.5-.3-1-.7-1.5-1l-1.5-.9c-.2-.2-.5-.3-.7-.5-.3-.1-.5-.3-.7-.4-.5-.3-1-.6-1.4-.9-.5-.3-1-.5-1.4-.8-.5-.3-.9-.5-1.3-.8-.5-.2-.9-.5-1.3-.7-3.8-2.1-7-3.5-9.6-4.9-1.3-.6-2.5-1.3-3.6-2-1.1-.6-2-1.3-2.8-1.9-.4-.4-.8-.7-1.1-1-.3-.3-.7-.7-.9-1-.6-.7-1-1.4-1.3-2.2-.7-1.5-.9-3.1-.8-4.8.1-1.7.5-3.2 1.5-4.6.5-.7 1.1-1.3 1.9-1.9.4-.3.9-.6 1.4-.8.5-.3 1.1-.5 1.7-.7 1.2-.4 2.6-.7 4.3-.8 1.7-.1 3.6-.1 5.7.2 4.3.6 9.6 2 15.6 5.3 5.3 2.9 10.8 7.7 15.1 13.5.5.7 1 1.5 1.6 2.2.5.7 1 1.5 1.4 2.3l.7 1.2.6 1.2 1.2 2.4c1.6 3.2 2.8 6.5 3.8 9.6 1 3.2 1.7 6.3 2.2 9.2.5 2.9.8 5.6.9 8.1.1 4.7-.1 8.4-.3 10.3z"/><path class="st3" d="M153.9 263.4c-1-5.1-2.5-10.2-4.4-15.1-1.9-4.9-4.3-9.6-7.2-14-2.9-4.4-6.2-8.5-10.1-12-3.8-3.6-8.1-6.6-12.8-9-.3-.1-.4-.6-.2-1s.6-.6 1-.5c4.8 2.4 9.3 5.5 13.2 9.2 3.9 3.7 7.4 7.9 10.3 12.4 2.9 4.5 5.4 9.3 7.3 14.3 2 5 3.5 10.1 4.5 15.4.1.4-.3.7-.7.8-.4.1-.8-.1-.9-.5z"/></g><g><path class="st4" d="M157.7 264.4c-.1.4-.7.5-.8 0-.5-2.5-1.3-7.4-1.3-13.9 0-3.3.2-6.9.6-10.8.5-3.9 1.3-8.1 2.5-12.4.3-1.1.6-2.1 1-3.2s.7-2.2 1.2-3.2c.4-1.1.9-2.2 1.3-3.2.5-1.1 1-2.1 1.5-3.2 2.1-4.2 4.6-8.4 7.5-12.1 1.4-1.9 3-3.6 4.5-5.4.8-.9 1.6-1.6 2.4-2.4.8-.8 1.6-1.6 2.5-2.3.8-.7 1.7-1.4 2.5-2.1.8-.7 1.7-1.4 2.5-1.9.9-.6 1.7-1.2 2.5-1.7s1.6-1.1 2.5-1.5c.9-.5 1.9-1 2.8-1.5.5-.2.9-.5 1.3-.7.4-.2.9-.5 1.3-.6 1.8-.8 3.4-1.5 5-2.2 1.6-.6 3.2-1.1 4.6-1.5.7-.2 1.5-.4 2.1-.6.7-.2 1.4-.3 2.1-.4 5.3-1.2 9.4-1.2 12.5-.9 6.2 1 8.4 3.7 9 7 .6 3.3-.6 6.6-5.2 9.8-2.2 1.7-5.3 3.3-9.2 5.3-.5.2-1 .5-1.5.7-.5.3-1 .6-1.6.8-1.1.6-2.2 1.1-3.4 1.7-1.2.6-2.4 1.3-3.7 1.9-.3.2-.7.3-1 .5-.3.2-.7.4-1 .6-.7.4-1.4.8-2.1 1.1-.6.3-1.2.7-1.9 1.1-.6.4-1.3.8-2 1.1-.7.4-1.3.8-2 1.2-.7.4-1.4.9-2.1 1.3-.7.4-1.3.9-2.1 1.4-.7.5-1.4.9-2.1 1.5-1.3 1.1-2.8 2-4.2 3.2-5.6 4.5-10.9 10.2-15.2 16.4-2.2 3.1-4.1 6.3-5.7 9.4-1.6 3.1-3 6.2-4.1 9-1.7 5.6-2.9 10.3-3.5 12.7z"/><path class="st3" d="M156.5 264.4c0-3.7.4-7.3.9-10.9.5-3.6 1.3-7.1 2.3-10.6 1-3.5 2.2-6.9 3.5-10.3.4-.8.7-1.7 1.1-2.5l.6-1.2.6-1.2 1.2-2.4 1.4-2.4c3.6-6.3 8.2-12 13.5-17 5.3-5 11.2-9.2 17.6-12.6.4-.2.9-.1 1.2.3.2.4.1.9-.4 1.2-12.6 6.6-23.3 16.7-30.5 29l-1.3 2.3-1.2 2.4-.6 1.2-.5 1.2c-.4.8-.7 1.6-1.1 2.4-1.4 3.3-2.5 6.7-3.5 10.1-1 3.4-1.7 6.9-2.2 10.4-.5 3.5-.9 7.1-.9 10.6 0 .5-.4.8-.8.9-.5 0-.9-.4-.9-.9z"/></g><g><path d="M210.1 141.4h-11.4c-.7-5.8-1.3-11.6-2-17.4h15.5c-.8 5.8-1.4 11.6-2.1 17.4z" fill="#5c86db"/><path class="st6" d="M213 123.9h-17.3v-.9c0-1 .8-1.7 1.7-1.7h13.8c1 0 1.7.8 1.7 1.7v.9z"/><path class="st6" d="M211.2 121.5h-13.6c0-1.7 1.4-3 3-3h8.1c1.4 0 2.5 1.1 2.5 2.5v.5z"/><ellipse transform="rotate(-79.438 204.374 131.51)" cx="204.4" cy="131.5" rx="3.7" ry="3.7" fill="#d1e5f5"/></g><g><path class="st6" d="M195.4 144h-4.9l-6.2-45c0-.3.2-.5.4-.5h2.4c1.1 0 2.1.9 2.2 2l6.1 43.5z"/><path class="st6" d="M191.8 140v4h45c.4 0 .8-.4.8-.8 0-1.8-1.4-3.2-3.2-3.2h-42.6z"/><path class="st8" d="M201.4 143h-3.7c-.5 0-1-.4-1-1 0-.5.4-1 1-1h3.7c.5 0 1 .4 1 1s-.5 1-1 1z"/></g><g><path class="st9" d="M271.9 238.9l2.1 8.5 6.6-1.4-1.2-8.8zM182.4 246.6l-5 5.4s1.1 5.1 10.1 2.8l6-5.8-11.1-2.4z"/><path class="st6" d="M246.6 182.6l24.6 60h8.7c.4 0 .7-.3.6-.7-.3-3.7-1.7-21.4-3.4-35.4-1.2-10-4.9-19.5-10.9-27.6l-3.8-5.1H250l-3.4 8.8z"/><path class="st9" d="M237.7 105.2c-3.1.9-11.5 3.7-11.5 3.7s-2.2 6.8-2.1 7.3c.1.5-.6 4.5 0 4.5s5-5.1 5-5.1 3.2 1.1 8-.5c4.9-1.6.4-.2.4-.2l4.2 1.8 3.4-7.2-5.6-3.9c-.4-.4-1.1-.5-1.8-.4z"/><path class="st6" d="M275.9 37.6s-17 9.1-5.8 32.5c11.1 23.3-.9 50.9-.9 50.9s8.4 14.1 24.7 18.7c0 0 10-32.5 4.2-55.9-5.8-23.5-22.6-47.3-22.2-46.2z"/><path class="st10" d="M313.4 98.4L280 130.9c-2.7 2.6-6.9 2.5-9.5-.1-2.4-2.4-2.5-6.2-.5-8.8l28.6-36.7c3.4-4.3 9.6-5.1 13.9-1.7 4.3 3.4 5.1 9.6 1.7 13.9-.2.3-.5.6-.8.9z"/><path class="st10" d="M286.6 132.3c1.4-3.9-.9-8.3-5.1-10l-37-14.3-4.7 9 35.8 19c.3.2.6.3 1 .4 4.1 1.6 8.6-.2 10-4.1z"/><path class="st6" d="M271.4 41.8c-1.1.9-2 2-2.8 3.2-.7 1.2-1.3 2.5-1.7 3.9-.8 2.7-1 5.6-.9 8.4l.2 2.1.1 1.1.2 1 .4 2.1c.2.7.4 1.4.5 2.1.2.7.3 1.4.5 2.1l.7 2 1.4 4.1c1.8 5.5 3.1 11.2 3.2 17 .1 2.9-.1 5.8-.6 8.7l-.2 1.1-.3 1.1-.6 2.1c-.4 1.4-1 2.7-1.7 4 1.2-2.6 1.8-5.4 2.1-8.3l.1-1.1.1-1.1c.1-.7.1-1.4.1-2.1v-2.1l-.1-2.1c0-.7-.1-1.4-.2-2.1-.1-.7-.1-1.4-.2-2.1-.2-1.4-.4-2.8-.7-4.2l-.4-2.1-.6-2.1-.6-2.1-.7-2-1.4-4.1-.7-2.1c-.2-.7-.4-1.4-.5-2.1-.2-.7-.4-1.4-.5-2.1l-.3-2.2-.2-1.1c0-.4-.1-.7-.1-1.1l-.1-2.2c0-2.9.3-5.8 1.3-8.6.5-1.4 1.2-2.7 2-3.9.9-1.2 2-2.3 3.2-3.1z"/><path d="M293.6 86.2l-.6 2.4s9-2.3 16.8-10.4l-16.2 8z" fill="#ce6a42"/><path class="st6" d="M339.3 160l-42.1-5.1c-36.4 0-57.2 19.1-57.2 19.1l12.3 13.1H329c1.1 0 2.1-.3 3-.9 10.9-7.3 7.3-26.2 7.3-26.2z"/><path class="st12" d="M309.7 78.2s12.5 4 20.2 18.8c7.8 14.8 13.4 51 9.9 67.3 0 0-34.5-1.2-42.7-9.4 0 0 .6-31.3-4.6-39.3-5.2-7.9 1-29.4 1-29.4s11.3-4.5 16.2-8z"/><path class="st12" d="M314.1 111.5L280.7 144c-2.7 2.6-6.9 2.5-9.5-.1-2.4-2.4-2.5-6.2-.5-8.8l28.6-36.7c3.4-4.3 9.6-5.1 13.9-1.7 4.3 3.4 5.1 9.6 1.7 13.9-.2.2-.5.6-.8.9z"/><path class="st9" d="M236.9 137.6l-16.4-2.4c-.6-.1-1.3.1-1.8.4l-9.9 6.9c-.6.4-.3 1.4.4 1.4H237v-6.3z"/><path class="st12" d="M282.2 138c-.6-4.1-4.7-7-9.1-6.4l-39.5 4.5v10.2l40.5.1c.3 0 .7 0 1-.1 4.5-.5 7.7-4.2 7.1-8.3z"/><path class="st9" d="M229.7 112.3l-4.2 10.6c-.3.8-1.2 1.1-1.9.8-.7-.3-1-.9-.9-1.6l1.9-11.2c.2-1.4 1.6-2.4 3.1-2.1 1.4.2 2.4 1.6 2.1 3.1 0 0 0 .2-.1.4zM304.3 53.9c1 11.7-8.7 25-18.4 25.9-9.7.9-15.6-11-16.6-22.8-1-11.7 6-21.9 15.6-22.8s18.4 8 19.4 19.7z"/><path class="st9" d="M287.6 64.7s5.8 9.8 6 21.5c0 0 7.8 3.6 16.2-8 0 0-2.8-8.7-12.1-20l-10.1 6.5z"/><path class="st12" d="M267.8 266.7h-14.9c0-5.2 4.2-9.4 9.4-9.4h5.5v9.4zM169.4 265h-17.8v-3c0-4.6 3.7-8.3 8.3-8.3l13.3-2.8-3.8 14.1z"/><path class="st12" d="M267.8 266.7h5.4l15.1-18.2-7.6-5.9s-2.8 6.1-9.8 4l-7.3 10.7 4.2 9.4z"/><path d="M268.7 251.9l1.9-12.6s3.3-.5 3.5 4c.1 4.4-5.4 8.6-5.4 8.6z" fill="#5959bc"/><path class="st6" d="M272.6 267.3h-19.7V266h19.7c.2 0 .4-.1.5-.2l14.7-17.8 1 .8-14.8 17.8c-.3.5-.9.7-1.4.7z"/><path class="st12" d="M169.4 265h14.3l8.1-12.4c.4-.5-.2-1.2-.8-1.1-4.5 1.2-14.6 4.4-14.2-3.2l-7.5 5.4V265z"/><path class="st12" d="M172.2 255.2l7.2-11.8s3.5.9 1.9 5.4c-1.7 4.6-9.1 6.4-9.1 6.4z"/><path class="st6" d="M176.2 254.2c-.1 0-.2 0-.3-.1l-5-2.6c-.3-.2-.5-.6-.3-.9.2-.3.6-.5.9-.3l5 2.6c.3.2.5.6.3.9-.2.3-.4.4-.6.4zM173.2 255.5c-.1 0-.2 0-.3-.1l-5-2.6c-.3-.2-.5-.6-.3-.9.2-.3.6-.5.9-.3l5 2.6c.3.2.5.6.3.9-.1.3-.3.4-.6.4z"/><path d="M271.9 252.9h-.2l-3.9-1c-.3-.1-.6-.4-.5-.8.1-.3.4-.6.8-.5l3.9 1c.3.1.6.4.5.8-.1.3-.3.5-.6.5z" fill="#222651"/><path class="st6" d="M269.9 255h-.2l-3.9-1c-.3-.1-.6-.4-.5-.8.1-.3.4-.6.8-.5l3.9 1c.3.1.6.4.5.8 0 .3-.3.5-.6.5zM151.6 264.4h32.1v1.3h-32.1zM271.1 45.2c.4 2 1.1 3.8 1.9 5.6.9 1.7 2 3.4 3.3 4.7 1.3 1.4 2.9 2.5 4.7 3.3 1.8.8 3.7 1.4 5.6 1.8-2 .1-4-.2-6-1-1-.4-1.9-.8-2.8-1.4-.9-.6-1.7-1.2-2.4-2-1.4-1.5-2.6-3.3-3.3-5.2-.6-1.7-1.1-3.7-1-5.8z"/><path class="st6" d="M270.4 43.9s-2.4 10.2 14.3 14.6c2.3.6 4.7.7 7.1.4 3.3-.3 9.3.2 10.3 8.1.1.5.7.7 1.1.4 10.5-9.3 3.2-27.8-9.2-32.4-10.1-3.7-20.7 2.1-23.6 8.9z"/><circle class="st9" cx="296" cy="60.6" r="4.6"/><path class="st10" d="M296 129.6c-.2 0-.3-.1-.4-.2-.2-.2-.2-.6 0-.8l18-17.5c.2-.2.6-.2.8 0 .2.2.2.6 0 .8l-18 17.5c-.1.1-.2.2-.4.2z"/><path d="M292.4 77.4s3.1-1.8 5.5-4.9c0 0-1 6.4-4.6 9.7l-.9-4.8z" fill="#db928a"/><path class="st6" d="M244.9 175.1c-.2-.1-4.8-1.3-5-1.1l-57.5 72.5 11.1 3.8c16.2-13.6 33.5-25.9 43.2-34.8 7-6.4 12.4-14.3 15.8-23.1l2.3-6-9.9-11.3z"/></g><g><path class="st12" d="M225.2 67.6c0 1.2-9.3 2.2-20.8 2.2s-20.8-1-20.8-2.2c0-1.2 9.3-2.2 20.8-2.2s20.8 1 20.8 2.2z"/><path class="st10" d="M225 67.4h-41.3c0-9.8 8-17.8 17.8-17.8h5.7c9.9.1 17.8 8 17.8 17.8z"/><path class="st9" d="M204.4 65.4c-2.8 0-5.5.1-7.9.2-.3.8-.4 1.7-.4 2.7 0 4.6 3.7 8.3 8.3 8.3s8.3-3.7 8.3-8.3c0-.9-.2-1.8-.4-2.7-2.5-.1-5.1-.2-7.9-.2z"/><path class="st10" d="M197.6 49.7v-1.3c0-3.3 2.7-6 6-6h1.7c3.3 0 6 2.7 6 6v1.3"/></g><g><path class="st12" d="M269.4 25.1c0 1.2-9.3 2.2-20.8 2.2s-20.8-1-20.8-2.2c0-1.2 9.3-2.2 20.8-2.2s20.8 1 20.8 2.2z"/><path class="st10" d="M269.3 25H228c0-9.8 8-17.8 17.8-17.8h5.7c9.8 0 17.8 8 17.8 17.8z"/><path class="st9" d="M248.6 22.9c-2.8 0-5.5.1-7.9.2-.3.8-.4 1.7-.4 2.7 0 4.6 3.7 8.3 8.3 8.3s8.3-3.7 8.3-8.3c0-.9-.2-1.8-.4-2.7-2.4-.1-5.1-.2-7.9-.2z"/><path class="st10" d="M241.8 7.2V6c0-3.3 2.7-6 6-6h1.7c3.3 0 6 2.7 6 6v1.3"/></g><g><path class="st16" d="M278 228.5c-.5 0-.9-.2-1.3-.5-.7-.7-.8-2 0-2.7l31.1-32.8c.7-.8 1.9-.8 2.7 0 .7.7.8 2 0 2.7L279.4 228c-.5.3-1 .5-1.4.5z"/><path class="st16" d="M319.1 228.5c-.5 0-1-.2-1.4-.6l-31.1-32.8c-.7-.8-.7-2 0-2.7.7-.7 1.9-.7 2.7 0l31.1 32.8c.7.8.7 2 0 2.7-.4.4-.9.6-1.3.6z"/><path class="st8" d="M336.3 193.7h-81v-3.2c0-1.9 1.5-3.4 3.4-3.4h77.6v6.6zM270.1 266.7h-6.4l18.3-73h6.5zM327.4 266.7h6.4l-18.3-73H309z"/><path class="st16" d="M287.8 196.2l.7-2.5H282l-.6 2.5zM316.1 196.2l-.6-2.5H309l.6 2.5z"/></g><g><path class="st17" d="M285.3 150.9H167.7v-3.6c0-1.9 1.5-3.4 3.4-3.4h114.2v7zM221.4 153.4h8.3V263h-8.3z"/><path class="st17" d="M249.3 265.7h-46.2c0-3.5 2.8-6.3 6.3-6.3H243c3.4 0 6.3 2.9 6.3 6.3zM221.4 150.9h8.3v2.4h-8.3z"/></g><g><path class="st3" d="M204 0h.7v42.5h-.7z"/></g></g></switch></svg>