<svg id="Слой_1" xmlns="http://www.w3.org/2000/svg" viewBox="0 0 951.8 739.6"><style>.st1{fill:#dbe5f8}.st2{fill:#f9faff}.st3{fill:#eff5ff}.st4{fill:#cddcf2}.st6{fill:#343339}.st8{fill:#b1cbec}.st9{fill:#e9a79d}.st10{fill:#597fd8}.st12{fill:#7597f0}.st16{fill:#96badd}.st17{fill:#a7c6e7}</style><switch><g><path id="Фигура_553" d="M0 358.3s15.8-124.9 126.3-112.1C278.9 263.8 201.3 143 275.7 97c91.2-56.4 152.8 14.9 235-41.5 41.5-28.5 72.8-44.9 99.8-53.9H951c1.1 226.5.8 635.4.7 686.7-3.6 1.1-4.3 2.2-8.3 3.2-77.3 19.8-114.3-10.1-183.6-5.1-96.5 7-88.6 52.1-182.4 53.1-119 1.3-165.9-71.6-245.7-65.8-104 7.5-158.3 5-176.3-108.4-14.6-92.5-153-33.2-155.4-207z" fill="#fff"/><path class="st1" d="M847.3 632.6H248.9c-1.2 0-2.2-1-2.2-2.2 0-1.2 1-2.2 2.2-2.2h598.4c1.2 0 2.2 1 2.2 2.2 0 1.3-1 2.2-2.2 2.2zM743.9 489c0 51.3-11.2 131.8-25.1 131.8-13.8 0-25.1-80.5-25.1-131.8 0-51.3 11.2-84 25.1-84 13.9 0 25.1 32.7 25.1 84z"/><path class="st2" d="M718.8 621.8c-.6 0-1-.5-1-1V441.3c0-.6.5-1 1-1s1 .5 1 1v179.5c.1.5-.4 1-1 1z"/><path class="st1" d="M693.1 513c17.2 39 35.6 104 25.1 108.6-10.5 4.6-46-52.9-63.2-91.8-17.2-39-19.6-67.7-9.1-72.3 10.5-4.7 30 16.5 47.2 55.5z"/><path class="st2" d="M718.5 622.4c-.4.2-.9 0-1.1-.4l-60.1-136.5c-.2-.4 0-.9.4-1.1.4-.2.9 0 1.1.4l60.1 136.5c.2.4 0 .9-.4 1.1z"/><path class="st1" d="M650.2 541.7c31.3 25.6 75 72.8 68 81.2-6.9 8.5-61.8-24.9-93.1-50.6s-45.8-48.9-38.8-57.3c6.9-8.4 32.5 1.1 63.9 26.7z"/><path class="st2" d="M718.8 623.5c-.3.3-.8.4-1.1.1L608 533.9c-.3-.3-.4-.8-.1-1.1.3-.3.8-.4 1.1-.1l109.7 89.7c.4.2.4.7.1 1.1z"/><path class="st1" d="M639.3 592.6c31.6 5.3 80.2 20.5 78.8 29.1-1.4 8.5-52.3 7.2-84 1.9-31.6-5.3-50.7-15.6-49.3-24.1s22.8-12.2 54.5-6.9z"/><path class="st2" d="M718.7 621.7c-.1.3-.4.6-.7.5l-110.8-18.5c-.3-.1-.6-.4-.5-.7.1-.3.4-.6.7-.5L718.2 621c.3.1.6.4.5.7z"/><path class="st1" d="M741.2 513c-17.2 39-35.6 104-25.1 108.6 10.5 4.6 46-52.9 63.2-91.8s19.6-67.7 9.1-72.3c-10.5-4.7-30 16.5-47.2 55.5z"/><path class="st2" d="M715.8 622.4c.4.2.9 0 1.1-.4L777 485.4c.2-.4 0-.9-.4-1.1-.4-.2-.9 0-1.1.4l-60.1 136.5c-.3.5-.1 1 .4 1.2z"/><path class="st1" d="M784.1 541.7c-31.3 25.6-75 72.8-68 81.2 6.9 8.5 61.8-24.9 93.1-50.6S855 523.4 848 515c-6.9-8.4-32.6 1.1-63.9 26.7z"/><path class="st2" d="M715.4 623.5c.3.3.8.4 1.1.1l109.7-89.7c.3-.3.4-.8.1-1.1-.3-.3-.8-.4-1.1-.1l-109.7 89.7c-.3.2-.4.7-.1 1.1z"/><path class="st1" d="M795 592.6c-31.6 5.3-80.2 20.5-78.8 29.1s52.3 7.2 84 1.9c31.6-5.3 50.7-15.6 49.3-24.1s-22.9-12.2-54.5-6.9z"/><path class="st2" d="M715.5 621.7c.1.3.4.6.7.5L827 603.7c.3-.1.6-.4.5-.7-.1-.3-.4-.6-.7-.5L716.1 621c-.4.1-.6.4-.6.7z"/><g><path class="st3" d="M463.4 365.3c-5.2-7.8-7-17.3-4.4-26.3 1.7-6 2.6-12.3 2.6-18.9 0-14-4.2-26.9-11.3-37.8-5.1-7.8-5.8-17.6-2.4-26.2 2.7-6.7 4.1-14.1 4.1-21.7 0-32.7-26.5-69.4-59.2-69.4s-59.2 36.7-59.2 69.4c0 7.7 1.5 15 4.1 21.7 3.4 8.6 2.7 18.5-2.4 26.2-7.1 10.8-11.3 23.8-11.3 37.8 0 6.5.9 12.9 2.6 18.9 2.5 9 .7 18.5-4.4 26.3-8.9 13.4-14.1 29.5-14.1 46.7 0 46.8 37.9 74.1 84.7 74.1 46.8 0 84.7-27.3 84.7-74.1 0-17.2-5.2-33.3-14.1-46.7z"/><path class="st1" d="M392.8 631.4c-1.9 0-3.4-1.5-3.4-3.4V249c0-1.9 1.5-3.4 3.4-3.4s3.4 1.5 3.4 3.4v379c0 1.8-1.5 3.4-3.4 3.4z"/></g><g><path class="st4" d="M349.2 623.3c-.1.7-1.4.9-1.7.3-1.7-3.5-5.3-10.1-10.4-18-2.6-3.9-5.5-8.2-8.8-12.6-3.3-4.3-7-8.8-10.9-13-3.9-4.3-8.1-8.4-12.3-12.2l-3.2-2.8c-.5-.5-1.1-.9-1.6-1.4l-1.6-1.3c-1.1-.8-2.1-1.7-3.2-2.5l-3.3-2.4c-1-.8-2.2-1.5-3.2-2.2-1.1-.7-2.1-1.5-3.2-2.1-1.1-.6-2.1-1.3-3.1-1.9-.5-.3-1-.6-1.5-1l-1.5-.9-3-1.8c-1-.6-2-1.1-2.9-1.6-.9-.5-1.9-1.1-2.8-1.6-.9-.5-1.8-.9-2.7-1.4-7.8-4.3-14.4-7.3-19.9-10.2-2.8-1.3-5.2-2.7-7.4-4.1-2.2-1.2-4.1-2.6-5.8-4-.8-.7-1.6-1.4-2.3-2.1-.7-.7-1.3-1.4-1.9-2.1-1.2-1.4-2.1-3-2.8-4.5-1.4-3.1-1.9-6.5-1.7-10 .2-3.5 1-6.7 3.1-9.5 1-1.4 2.3-2.7 4-3.9.8-.6 1.8-1.2 2.8-1.7 1-.5 2.2-1 3.4-1.4 2.5-.8 5.4-1.3 8.9-1.7 3.4-.2 7.3-.1 11.8.3 8.8 1.2 19.9 4.2 32.1 10.9 10.9 6 22.3 15.9 31.1 27.9 1.1 1.5 2.2 3 3.2 4.6 1.1 1.5 2 3.2 3 4.7l1.4 2.4c.5.8.9 1.6 1.3 2.4.9 1.6 1.7 3.3 2.6 4.9 3.2 6.6 5.8 13.4 7.9 19.9 2 6.6 3.5 13 4.5 19s1.6 11.6 1.9 16.7c.6 10.3.1 17.9-.3 21.9z"/><path class="st3" d="M346.6 623.8c-2-10.6-5.2-21.1-9.2-31.2-4-10.1-9-19.8-14.8-28.9-5.9-9.1-12.9-17.5-20.8-24.9-7.9-7.4-16.8-13.7-26.5-18.5-.6-.3-.8-1.2-.4-2.1.4-.9 1.3-1.3 2-1 10 5 19.2 11.5 27.3 19 8.1 7.6 15.3 16.2 21.3 25.5s11.1 19.2 15.2 29.5 7.3 20.9 9.4 31.9c.1.7-.5 1.5-1.5 1.6-1 .2-1.8-.2-2-.9z"/></g><g><path class="st4" d="M354.5 625.8c-.2.9-1.5.9-1.7 0-1.1-5.2-2.7-15.3-2.8-28.7-.1-6.7.3-14.2 1.3-22.3 1-8.1 2.6-16.7 5.2-25.5.6-2.2 1.3-4.4 2.1-6.6.8-2.2 1.5-4.5 2.4-6.7.9-2.2 1.8-4.5 2.7-6.7 1-2.2 2.1-4.4 3.1-6.6 4.4-8.7 9.5-17.3 15.6-25 2.9-4 6.2-7.5 9.4-11.1 1.6-1.8 3.3-3.4 5-5 1.7-1.6 3.3-3.3 5.1-4.8 1.8-1.5 3.5-2.9 5.2-4.3 1.7-1.4 3.4-2.8 5.2-4 1.8-1.2 3.5-2.4 5.2-3.5 1.7-1.1 3.4-2.3 5.1-3.2 1.9-1.1 3.8-2.1 5.7-3.1.9-.5 1.8-1 2.8-1.5.9-.5 1.8-.9 2.7-1.3 3.6-1.6 7.1-3.1 10.4-4.4 3.3-1.3 6.6-2.2 9.6-3.2 1.5-.4 3-.9 4.4-1.3 1.4-.4 2.9-.6 4.2-.9 11-2.4 19.5-2.4 25.9-1.8 12.9 2 17.4 7.6 18.6 14.4 1.2 6.8-1.3 13.7-10.7 20.2-4.5 3.6-10.9 6.8-19 11-1 .5-2.1 1-3.2 1.5-1 .6-2.1 1.1-3.2 1.7-2.2 1.2-4.6 2.2-7.1 3.5-2.4 1.3-5 2.7-7.7 4-.7.3-1.4.7-2 1.1-.7.4-1.3.8-2 1.2-1.4.8-2.8 1.6-4.3 2.4-1.3.7-2.6 1.5-3.9 2.3-1.3.8-2.7 1.6-4 2.4-1.4.7-2.7 1.7-4.1 2.6-1.4.9-2.8 1.8-4.3 2.6-1.4.9-2.8 1.9-4.2 2.9-1.4 1-2.9 1.9-4.3 3-2.8 2.2-5.8 4.2-8.6 6.7-11.5 9.3-22.4 21-31.3 33.8-4.5 6.3-8.4 13-11.8 19.4-3.4 6.4-6.3 12.8-8.6 18.6-4.4 11.5-7 21.1-8.1 26.2z"/><path class="st3" d="M351.9 625.8c.1-7.5.8-15 1.9-22.4 1.1-7.4 2.7-14.7 4.7-22 2-7.2 4.5-14.3 7.3-21.2.7-1.7 1.5-3.4 2.3-5.1l1.1-2.6 1.3-2.5 2.5-5 2.8-4.9c7.5-13 17-24.8 27.8-35.1 10.9-10.3 23.2-19.1 36.4-26.1.9-.5 1.9-.2 2.4.7.4.9.1 1.9-.7 2.4-26 13.7-48.2 34.4-62.9 59.9l-2.7 4.8-2.5 4.9-1.2 2.5-1.1 2.5c-.7 1.7-1.5 3.3-2.2 5-2.8 6.8-5.2 13.7-7.2 20.8-2 7.1-3.5 14.3-4.6 21.5-1.1 7.3-1.8 14.6-1.8 21.9 0 1-.8 1.7-1.7 1.8-1.1 0-1.9-.8-1.9-1.8z"/></g><g><path d="M462.6 371.7H439l-4.2-36h32l-4.2 36z" fill="#5c86db"/><path class="st6" d="M468.6 335.8H433V332c0-1 .8-1.7 1.7-1.7h32.2c1 0 1.7.8 1.7 1.7v3.8z"/><path class="st6" d="M464.9 330.7h-28.2v-1.6c0-2.6 2.1-4.6 4.6-4.6H461c2.1 0 3.8 1.7 3.8 3.8v2.4z"/><ellipse transform="rotate(-79.438 450.787 351.366)" cx="450.8" cy="351.4" rx="7.6" ry="7.6" fill="#d1e5f5"/></g><g><path class="st6" d="M432.3 377.2h-10.1l-12.9-93c-.1-.6.3-1 .9-1h5c2.2 0 4.3 1.8 4.6 4l12.5 90z"/><path class="st6" d="M424.7 369v8.2h93.2c.7 0 1.3-.6 1.3-1.3v-1.7c0-2.9-2.3-5.2-5.2-5.2h-89.3z"/><path class="st8" d="M444.6 375.1h-7.7c-1.1 0-2.1-.9-2.1-2.1 0-1.1.9-2.1 2.1-2.1h7.7c1.1 0 2.1.9 2.1 2.1 0 1.2-1 2.1-2.1 2.1z"/></g><g><path class="st9" d="M590.2 573.1l4.4 17.6 13.6-2.9-2.5-18.3zM405.5 589l-10.4 11.2s2.2 10.6 20.8 5.9l12.4-12.1-22.8-5z"/><path class="st6" d="M538.1 456.8L589 580.6h17.9c.8 0 1.4-.7 1.3-1.4-.6-7.6-3.6-44.2-6.9-73.1-2.4-20.6-10.2-40.3-22.6-56.9l-7.9-10.6h-25.6l-7.1 18.2z"/><path class="st9" d="M519.6 297.1c-6.4 1.8-23.8 7.6-23.8 7.6s-4.5 14-4.3 15.1c.3 1.1-1.2 9.2 0 9.3 1.2 0 10.4-10.6 10.4-10.6s6.5 2.2 16.6-1 .9-.4.9-.4l8.6 3.8 7-14.9-11.5-8.1c-1.1-.9-2.6-1.2-3.9-.8z"/><path class="st6" d="M598.6 157.5s-35 18.8-12.1 67-1.9 105.1-1.9 105.1 17.3 29.2 51.1 38.6c0 0 20.7-67.2 8.6-115.5-12-48.3-46.6-97.5-45.7-95.2z"/><path class="st10" d="M675.9 283.1l-69 67c-5.5 5.3-14.3 5.2-19.6-.3-4.9-5-5.2-12.8-1-18.2l59.1-75.9c7-8.9 19.9-10.5 28.8-3.6 8.9 7 10.5 19.9 3.6 28.8-.6.8-1.3 1.5-1.9 2.2z"/><path class="st10" d="M620.7 353c2.9-8-1.8-17.2-10.5-20.6l-76.5-29.7-9.8 18.6 73.9 39.1c.6.3 1.3.6 2 .9 8.6 3.4 18-.3 20.9-8.3z"/><path class="st6" d="M589.1 166.2c-2.3 1.8-4.2 4.1-5.7 6.7-1.5 2.5-2.7 5.2-3.5 8-1.7 5.6-2.1 11.5-1.9 17.3l.4 4.4.2 2.2.4 2.2.8 4.3c.3 1.4.7 2.8 1.1 4.3.4 1.4.7 2.8 1.1 4.2l1.4 4.2 2.8 8.4c3.8 11.3 6.3 23.1 6.7 35.1.2 6-.2 12-1.2 17.9l-.4 2.2-.5 2.2c-.3 1.5-.8 2.9-1.2 4.3-.9 2.8-2 5.6-3.5 8.2 2.4-5.4 3.7-11.2 4.4-17.1l.3-2.2.2-2.2c.1-1.5.2-2.9.2-4.4 0-1.5.1-2.9 0-4.4l-.2-4.4c0-1.5-.3-2.9-.4-4.4-.2-1.5-.2-2.9-.5-4.4-.5-2.9-.8-5.8-1.5-8.7l-.9-4.3c-.3-1.4-.8-2.8-1.1-4.3l-1.2-4.2-1.4-4.2-2.8-8.4-1.4-4.3c-.4-1.4-.7-2.9-1.1-4.4-.3-1.5-.7-2.9-1-4.4l-.7-4.4-.4-2.2c-.1-.7-.1-1.5-.2-2.2l-.3-4.5c-.1-6 .6-12.1 2.7-17.8 1-2.8 2.4-5.5 4.1-8 1.6-2.5 3.7-4.7 6.2-6.3z"/><path d="M635 257.8l-1.3 5s18.6-4.8 34.7-21.5L635 257.8z" fill="#ce6a42"/><path class="st6" d="M729.4 410.1l-87-10.4c-75.2 0-118.2 39.5-118.2 39.5l25.3 27.1H708c2.2 0 4.3-.7 6.1-1.9 22.7-15.2 15.3-54.3 15.3-54.3z"/><path class="st12" d="M668.3 241.3s25.7 8.3 41.8 38.8c16.1 30.5 27.6 105.3 20.4 139 0 0-71.2-2.5-88.1-19.4 0 0 1.2-64.7-9.5-81.1-10.8-16.4 2.1-60.8 2.1-60.8s23.1-9.3 33.3-16.5z"/><path class="st12" d="M677.3 310l-69 67c-5.5 5.3-14.3 5.2-19.6-.3-4.9-5-5.2-12.8-1-18.2l59.1-75.9c7-8.9 19.9-10.5 28.8-3.6 8.9 7 10.5 19.9 3.6 28.8-.6.8-1.3 1.6-1.9 2.2z"/><path class="st9" d="M518 364l-33.8-5c-1.3-.2-2.6.1-3.8.9l-20.5 14.2c-1.2.8-.7 2.9.8 2.9H518v-13z"/><path class="st12" d="M611.5 364.8c-1.2-8.4-9.6-14.4-18.9-13.3l-81.5 9.3v21l83.6.2c.7 0 1.5 0 2.2-.1 9.2-1.1 15.8-8.7 14.6-17.1z"/><path class="st9" d="M503.1 311.7l-8.6 21.8c-.6 1.6-2.4 2.3-3.9 1.7-1.4-.5-2.1-1.9-1.9-3.3l4-23.1c.5-3 3.3-5 6.3-4.4 3 .5 5 3.3 4.4 6.3-.1.3-.2.6-.3 1zM657.2 191.1c2.2 24.2-18 51.7-38 53.4-20 1.8-32.2-22.8-34.3-47s12.3-45.3 32.3-47.1c19.9-1.7 37.9 16.5 40 40.7z"/><path class="st9" d="M622.6 213.5s12.1 20.3 12.4 44.3c0 0 16 7.4 33.4-16.6 0 0-5.8-17.9-24.9-41.2l-20.9 13.5z"/><path class="st12" d="M581.7 630.5H551c0-10.8 8.7-19.5 19.5-19.5h11.3v19.5zM378.6 627.1h-36.8V621c0-9.5 7.7-17.2 17.2-17.2l27.5-5.7-7.9 29z"/><path class="st12" d="M581.7 630.5h11.1l31.2-37.6-15.7-12.2s-5.7 12.6-20.1 8.2l-15 22.2 8.5 19.4z"/><path d="M583.5 599.9l3.8-25.9s6.8-1 7.2 8.2-11 17.7-11 17.7z" fill="#5959bc"/><path class="st6" d="M591.6 631.8H551v-2.7h40.6c.4 0 .8-.2 1-.5L623 592l2 1.7-30.4 36.7c-.7.9-1.8 1.4-3 1.4z"/><path class="st12" d="M378.6 627.1h29.6l16.8-25.7c.7-1.1-.3-2.5-1.6-2.2-9.2 2.6-30.1 9.1-29.2-6.6l-15.5 11.2v23.3z"/><path class="st12" d="M384.4 606.8l14.8-24.4s7.2 1.9 3.8 11.2c-3.4 9.4-18.6 13.2-18.6 13.2z"/><path class="st6" d="M392.5 604.7c-.2 0-.4 0-.6-.2l-10.2-5.3c-.7-.3-.9-1.2-.6-1.8.3-.7 1.2-.9 1.8-.6l10.2 5.3c.7.3.9 1.2.6 1.8-.2.5-.7.8-1.2.8zM386.5 607.4c-.2 0-.4 0-.6-.2l-10.2-5.3c-.7-.3-.9-1.2-.6-1.8.3-.7 1.2-.9 1.8-.6l10.2 5.3c.7.3.9 1.2.6 1.8-.3.5-.7.8-1.2.8z"/><path d="M590.2 601.9h-.3l-8.1-2.1c-.7-.2-1.1-.9-1-1.6.2-.7.9-1.1 1.6-1l8.1 2.1c.7.2 1.1.9 1 1.6-.2.6-.7 1-1.3 1z" fill="#222651"/><path class="st6" d="M586.1 606.3h-.3l-8.1-2.1c-.7-.2-1.1-.9-1-1.6.2-.7.9-1.1 1.6-1l8.1 2.1c.7.2 1.1.9 1 1.6-.2.6-.7 1-1.3 1zM341.8 625.7h66.4v2.7h-66.4zM588.6 173.2c.9 4 2.2 7.9 4 11.5 1.8 3.6 4 6.9 6.8 9.7 2.8 2.8 6.1 5.1 9.7 6.8 3.6 1.7 7.5 2.8 11.6 3.7-4.1.2-8.3-.5-12.3-2-2-.8-3.9-1.7-5.7-2.9-1.8-1.2-3.5-2.5-5-4-3-3.1-5.3-6.7-6.8-10.7-1.6-3.7-2.4-7.9-2.3-12.1z"/><path class="st6" d="M587 170.5s-5 21 29.6 30.1c4.8 1.3 9.7 1.4 14.7.9 6.9-.7 19.1.4 21.4 16.8.1 1.1 1.4 1.5 2.2.8 21.7-19.2 6.6-57.5-19-67-20.9-7.7-42.8 4.3-48.9 18.4z"/><ellipse transform="rotate(-57.371 640.055 205.031)" class="st9" cx="640" cy="205" rx="9.5" ry="9.5"/><path class="st10" d="M640 347.4c-.3 0-.6-.1-.9-.4-.5-.5-.5-1.2 0-1.7l37.2-36.2c.5-.5 1.2-.5 1.7 0s.5 1.2 0 1.7L640.9 347c-.3.3-.6.4-.9.4z"/><path d="M632.6 239.7s6.4-3.8 11.4-10.2c0 0-2.1 13.2-9.6 20.1l-1.8-9.9z" fill="#db928a"/><path class="st6" d="M534.5 441.5c-.5-.3-9.9-2.7-10.2-2.2L405.5 589l22.9 7.9c33.4-28.1 69.3-53.5 89.3-71.8 14.4-13.2 25.5-29.5 32.6-47.7l4.8-12.4-20.6-23.5z"/></g><g><path class="st12" d="M493.7 219.3c0 2.5-19.2 4.5-42.9 4.5s-42.9-2-42.9-4.5 19.2-4.5 42.9-4.5c23.7.1 42.9 2.1 42.9 4.5z"/><path class="st10" d="M493.4 219.1h-85.2c0-20.3 16.4-36.7 36.7-36.7h11.8c20.3 0 36.7 16.4 36.7 36.7z"/><path class="st9" d="M450.8 214.9c-5.8 0-11.3.1-16.3.3-.6 1.7-.9 3.6-.9 5.5 0 9.5 7.7 17.2 17.2 17.2s17.2-7.7 17.2-17.2c0-1.9-.3-3.8-.9-5.5-5-.2-10.5-.3-16.3-.3z"/><path class="st10" d="M436.8 182.4v-2.6c0-6.8 5.5-12.3 12.3-12.3h3.5c6.8 0 12.3 5.5 12.3 12.3v2.6"/></g><g><path class="st12" d="M585.1 131.7c0 2.5-19.2 4.5-42.9 4.5s-42.9-2-42.9-4.5 19.2-4.5 42.9-4.5 42.9 2 42.9 4.5z"/><path class="st10" d="M584.8 131.4h-85.2c0-20.3 16.4-36.7 36.7-36.7h11.8c20.2 0 36.7 16.5 36.7 36.7z"/><path class="st9" d="M542.1 127.2c-5.8 0-11.3.1-16.3.3-.6 1.7-.9 3.6-.9 5.5 0 9.5 7.7 17.2 17.2 17.2s17.2-7.7 17.2-17.2c0-1.9-.3-3.8-.9-5.5-5-.2-10.5-.3-16.3-.3z"/><path class="st10" d="M528.1 94.7v-2.6c0-6.8 5.5-12.3 12.3-12.3h3.5c6.8 0 12.3 5.5 12.3 12.3v2.6"/></g><g><path class="st16" d="M602.7 551.6c-1 0-2-.4-2.7-1.1-1.5-1.5-1.6-4-.1-5.6l64.2-67.8c1.5-1.6 4-1.6 5.5-.1s1.6 4 .1 5.6l-64.2 67.8c-.7.8-1.8 1.2-2.8 1.2z"/><path class="st16" d="M687.6 551.6c-1 0-2-.4-2.8-1.2l-64.2-67.8c-1.5-1.6-1.5-4.1.1-5.6 1.5-1.5 4-1.5 5.5.1l64.2 67.8c1.5 1.6 1.5 4.1-.1 5.6-.8.8-1.7 1.1-2.7 1.1z"/><path class="st8" d="M723.1 479.9H556v-10.2c0-1.9 1.5-3.4 3.4-3.4h163.8v13.6z"/><path class="st8" d="M586.6 630.5h-13.4l37.9-150.6h13.3zM704.7 630.5H718l-37.8-150.6h-13.3z"/><path class="st16" d="M623.1 484.9l1.3-5h-13.3l-1.3 5zM681.4 484.9l-1.2-5h-13.3l1.2 5z"/></g><g><path class="st17" d="M617.9 391.5H375v-11.2c0-1.9 1.5-3.4 3.4-3.4h239.4v14.6zM485.9 396.5h17.2v226.2h-17.2z"/><path class="st17" d="M543.5 628.5h-95.4v-2.8c0-5.7 4.6-10.3 10.3-10.3h74.8c5.7 0 10.3 4.6 10.3 10.3v2.8zM485.9 391.5h17.2v5h-17.2z"/></g><g><path class="st3" d="M451.5 167.5h-1.4V.1l1.4.3z"/></g><g><path class="st3" d="M544.6 79.8h-1.4V.1l1.4-.2z"/></g></g></switch></svg>