<svg xmlns="http://www.w3.org/2000/svg" viewBox="0 0 95.6 54.5"><style>.st2{fill:#34333a}.st3{display:none}.st5{display:inline;fill:#34333a}.st6{fill:#fba89e}</style><switch><g><ellipse cx="47.8" cy="35.9" rx="47.8" ry="18.6" fill="#d4e8fa" id="Слой_2"/><g id="Слой_4"><path d="M24.7 30.3c-.3 0-.5-.2-.5-.5V1c0-.3.2-.5.5-.5h51.1c.3 0 .5.2.5.5v28.8c0 .3-.2.5-.5.5H24.7z" fill="#fff"/><path class="st2" d="M75.7 1v28.8h-51V1h51m0-1h-51c-.6 0-1 .4-1 1v28.8c0 .6.4 1 1 1h51.1c.6 0 1-.4 1-1V1c-.1-.6-.5-1-1.1-1z"/><g class="st3"><path d="M36.3 26c-.3 0-.5-.2-.5-.5 0-3.8-3.1-6.9-6.9-6.9-.3 0-.5-.2-.5-.5v-7.5c0-.3.2-.5.5-.5 3.8 0 6.9-3.1 6.9-6.9 0-.3.2-.5.5-.5h27.8c.3 0 .5.2.5.5 0 3.8 3.1 6.9 6.9 6.9.3 0 .5.2.5.5v7.5c0 .3-.2.5-.5.5-3.8 0-6.9 3.1-6.9 6.9 0 .3-.2.5-.5.5H36.3z" fill="#fff"/><path class="st5" d="M64.1 3.2c0 4.1 3.3 7.4 7.4 7.4v7.5c-4.1 0-7.4 3.3-7.4 7.4H36.3c0-4.1-3.3-7.4-7.4-7.4v-7.5c4.1 0 7.4-3.3 7.4-7.4h27.8m0-1H36.3c-.6 0-1 .4-1 1 0 3.5-2.9 6.4-6.4 6.4-.6 0-1 .4-1 1v7.5c0 .6.4 1 1 1 3.5 0 6.4 2.9 6.4 6.4 0 .6.4 1 1 1h27.8c.6 0 1-.4 1-1 0-3.5 2.9-6.4 6.4-6.4.6 0 1-.4 1-1v-7.5c0-.6-.4-1-1-1-3.5 0-6.4-2.9-6.4-6.4 0-.5-.5-1-1-1z"/></g><g class="st3"><path class="st5" d="M29.6 6.1l-1.8.3V3.2c0-.6.5-1.1 1.1-1.1h3.2L31.7 4h-2.1v2.1zM32.1 26.6h-3.2c-.6 0-1.1-.5-1.1-1.1v-3.2H30v2.1h2.1v2.2zM72.6 6.4L70.9 6V3.9h-2.1l-.5-1.7h3.2c.6 0 1.1.5 1.1 1.1v3.1zM71.5 26.6h-3.2l.5-1.8h2.1v-2.1l1.6-.4v3.2c.1.6-.4 1.1-1 1.1z"/></g></g><g id="Слой_3"><path class="st2" d="M20.8 4.7h51.1v31.8H20.8V4.7z"/><path class="st6" d="M32.4 32.2c0-4.1-3.3-7.4-7.4-7.4v-8.5c4.1 0 7.4-3.3 7.4-7.4h27.8c0 4.1 3.3 7.4 7.4 7.4v8.5c-4.1 0-7.4 3.3-7.4 7.4H32.4z"/><path class="st2" d="M46.3 28c-4.1 0-7.4-3.3-7.4-7.4 0-4.1 3.3-7.4 7.4-7.4 4.1 0 7.4 3.3 7.4 7.4 0 4.1-3.3 7.4-7.4 7.4z"/><path class="st6" d="M26.1 12.1H24V8.9c0-.6.5-1.1 1.1-1.1h3.2V10h-2.1v2.1zM28.2 33.3H25c-.6 0-1.1-.5-1.1-1.1V29H26v2.1h2.1v2.2zM68.7 12.1h-2.1V10h-2.1V7.9h3.2c.6 0 1.1.5 1.1 1.1v3.1zM67.6 33.3h-3.2v-2.1h2.1v-2.1h2.1v3.2c.1.5-.4 1-1 1z"/></g></g></switch></svg>