<svg xmlns="http://www.w3.org/2000/svg" viewBox="0 0 125.4 81.1"><style>.st0{fill:#fff}.st2{fill:#37363d}</style><switch><g><ellipse class="st0" cx="62.7" cy="56.6" rx="62.7" ry="24.5" id="Слой_2"/><g id="Слой_6"><path d="M35.2 55.6V7.5c0-.5.4-.9.9-.9h53.3c.5 0 .9.4.9.9v48.1c0 .5-.4.9-.9.9H36.1c-.5 0-.9-.4-.9-.9z" fill="#fba89e"/><path class="st0" d="M38.4 10H87v43.2H38.4z"/><path class="st2" d="M73.3 6.6C71.5 3.3 68.4.8 64.8.2c-5.1-.9-10.1 1.6-12.5 6l-.2.4H50v4.7c0 1 .8 1.8 1.8 1.8h21.7c1 0 1.8-.8 1.8-1.8V6.6h-2zM44.1 16.7H50V19h-5.9zM44.1 24H50v2.3h-5.9zM54.2 16.7h27.1V19H54.2zM54.2 24h27.1v2.3H54.2zM44.1 31.7H50V34h-5.9zM44.1 39H50v2.3h-5.9z"/><g><path class="st2" d="M54.2 31.7h27.1V34H54.2zM54.2 39h27.1v2.3H54.2z"/></g><g><path class="st2" d="M44.1 46.7H50V49h-5.9z"/></g><g><path class="st2" d="M54.2 46.7h27.1V49H54.2z"/></g></g></g></switch></svg>