<svg xmlns="http://www.w3.org/2000/svg" viewBox="0 0 95.6 59"><style>.st1{fill:#fff}.st2{fill:#37363d}.st4{fill:#fba89e}</style><switch><g><ellipse cx="47.8" cy="40.3" rx="47.8" ry="18.6" fill="#d9e7fa" id="Слой_2"/><g id="Слой_3"><path class="st1" d="M57.8 36.4c-.2 0-.4-.2-.4-.4V5.9c0-.2.2-.4.4-.4h15.8l7.2 7.3V36c0 .2-.2.4-.4.4H57.8z"/><path class="st2" d="M73.3 6l6.9 7v23H57.8V6h15.5m.4-1h-16c-.5 0-.9.4-.9.9V36c0 .5.4.9.9.9h22.5c.5 0 .9-.4.9-.9V12.5L73.7 5z"/><path class="st2" d="M73 12.3V5h1c.3 0 .5.1.7.3l6.2 6.2c.2.2.3.5.3.7v1H74c-.5.1-1-.4-1-.9zM71.9 14.3c0 .5-.4.9-.9.9h-9.4c-.5 0-.9-.4-.9-.9s.4-.9.9-.9H71c.5 0 .9.4.9.9zM77.5 19.1c0 .5-.4.9-.9.9h-15c-.5 0-.9-.4-.9-.9s.4-.9.9-.9h15c.5 0 .9.4.9.9zM77.5 23.8c0 .5-.4.9-.9.9h-15c-.5 0-.9-.4-.9-.9s.4-.9.9-.9h15c.5 0 .9.4.9.9zM77.5 28.6c0 .5-.4.9-.9.9h-15c-.5 0-.9-.4-.9-.9s.4-.9.9-.9h15c.5 0 .9.4.9.9z"/><path class="st1" d="M17.2 36.4c-.2 0-.4-.2-.4-.4V5.9c0-.2.2-.4.4-.4H33l7.2 7.3V36c0 .2-.2.4-.4.4H17.2z"/><path class="st2" d="M32.7 6l6.9 7v23H17.2V6h15.5m.4-1h-16c-.5 0-.9.4-.9.9V36c0 .5.4.9.9.9h22.5c.5 0 .9-.4.9-.9V12.5L33.1 5z"/><path d="M33.1 11.6V5h.9c.2 0 .5.1.7.3l5.6 5.7c.2.2.3.4.3.7v.9h-6.5c-.6-.1-1-.5-1-1z" fill="#4b4270"/><path class="st2" d="M31.3 14.3c0 .5-.4.9-.9.9H21c-.5 0-.9-.4-.9-.9s.4-.9.9-.9h9.4c.4 0 .9.4.9.9zM36.9 19.1c0 .5-.4.9-.9.9H21c-.5 0-.9-.4-.9-.9s.4-.9.9-.9h15c.5 0 .9.4.9.9zM36.9 23.8c0 .5-.4.9-.9.9H21c-.5 0-.9-.4-.9-.9s.4-.9.9-.9h15c.5 0 .9.4.9.9zM36.9 28.6c0 .5-.4.9-.9.9H21c-.5 0-.9-.4-.9-.9s.4-.9.9-.9h15c.5 0 .9.4.9.9z"/><path class="st2" d="M62.9 9.4v29.1c0 .6-.5 1.2-1.2 1.2H33.8c-.6 0-1.2-.5-1.2-1.2V1.2c0-.6.5-1.2 1.2-1.2h19.8l9.3 9.4z"/><path class="st4" d="M53.6 8.2V0h1.2c.3 0 .6.1.8.3l7 7c.2.2.3.5.3.8v1.2h-8.1c-.6.1-1.2-.5-1.2-1.1zM51.3 11.5c0 .6-.5 1.2-1.2 1.2H38.5c-.6 0-1.2-.5-1.2-1.2 0-.6.5-1.2 1.2-1.2h11.7c.6.1 1.1.6 1.1 1.2zM58.3 17.2c0 .6-.5 1.2-1.2 1.2H38.5c-.6 0-1.2-.5-1.2-1.2 0-.6.5-1.2 1.2-1.2h18.6c.7.1 1.2.6 1.2 1.2zM58.3 22.9c0 .6-.5 1.2-1.2 1.2H38.5c-.6 0-1.2-.5-1.2-1.2 0-.6.5-1.2 1.2-1.2h18.6c.7 0 1.2.5 1.2 1.2zM58.3 28.6c0 .6-.5 1.2-1.2 1.2H38.5c-.6 0-1.2-.5-1.2-1.2 0-.6.5-1.2 1.2-1.2h18.6c.7 0 1.2.5 1.2 1.2z"/></g></g></switch></svg>