<svg xmlns="http://www.w3.org/2000/svg" viewBox="0 0 322 72.03" width="322" height="72.03" preserveAspectRatio="xMinYMid"><path d="M192.86 48.11h-6.61c0-5.4.01-10.71 0-16.02a31.339 31.339 0 0 0-.11-4 4.312 4.312 0 0 0-4.77-4.1 4.9 4.9 0 0 0-4.98 4.72c-.06 6.33-.02 12.67-.02 19.32h-6.51c0-9.19-.04-18.3.08-27.4a2.607 2.607 0 0 1 1.72-1.9 99.714 99.714 0 0 1 13.26-.49c2.18.12 4.28 1.59 5.48 2.07 3.96-.75 7.23-1.92 10.49-1.87 4.71.09 7.94 3.36 8.14 8.1.3 7.11.08 14.23.08 21.58h-6.44c0-3.54 0-7.04-.01-10.55 0-2.89.09-5.8-.08-8.68-.2-3.34-2.1-5.07-5.06-4.91-2.94.15-4.64 2.04-4.65 5.27-.02 6.21-.01 12.43-.01 18.86zM92.45 18.33c-4.71-.17-9.44.35-14.4.57v40.77h6.53V47.99c1.19.27 2.04.5 2.9.65 8.07 1.39 14.83-2.6 16.11-10.09a31.085 31.085 0 0 0-.22-10.88c-1.1-5.86-4.99-9.13-10.92-9.34zm4.07 19.94c-1.1 4.11-7.09 6.28-10.68 4.06a3.411 3.411 0 0 1-1.29-2.37c-.18-2.1-.06-4.22-.06-6.34-.01-1.78.12-3.57-.04-5.34-.26-2.99 1.52-3.94 3.96-4.22 4.72-.54 8.05 1.86 8.6 6.65a20.675 20.675 0 0 1-.49 7.56zM49.7 52.76c8.68-6.13 11.06-15.07 11.09-24.91.03-9.87-8.74-19.87-18.52-21.45-14.31-2.32-22.65-.47-35.62 7.52 1.21-1.39 2.37-2.83 3.66-4.14C24.46-4.59 50.53-2.48 61.98 12.01c7.86 9.95 7.51 24.17-1.48 33.12-3.09 3.08-6.65 5.68-9.99 8.5zm172.73-16.61c.74 6.9 6.63 8.89 14.9 4.96.77 1.53 1.54 3.07 2.43 4.86-5.12 3.43-10.51 3.67-15.94 1.98-5.04-1.57-7.48-5.54-8.3-10.67-1.93-11.94 6.1-20.79 17.07-18.74a13.108 13.108 0 0 1 10.31 15.15c-.34 2.02-1.5 2.09-3.05 2.08-5.53-.01-11.06.03-16.59.07a3.585 3.585 0 0 0-.83.31zm13.77-5.69c-.8-4.73-2.85-6.57-6.81-6.5-3.79.07-6.06 2.29-6.49 6.5h13.3zM20.68 10.39C8.82 19.17 4.89 30.55 8.76 44.79c5.47 20.08 20.31 25.23 38.86 24.68-16.26 6.22-32 .86-41.22-13.52C2.21 49.41-.45 42.48.05 34.62c.78-12.14 8.57-21.35 20.63-24.23zm91.04 9.47a20.476 20.476 0 0 1 13.72-.87 8.238 8.238 0 0 1 6.32 7.37c.48 4.18.38 8.43.74 12.63.23 2.69.84 5.35 1.36 8.53-2.09 2.3-4.11 2.12-6.9-.87-3.21.77-6.09 1.93-9.01 2.07-4.84.23-7.97-2.27-8.98-6.3-1.2-4.8.56-9.79 4.92-11.58 3.57-1.47 7.58-1.89 11.44-2.79-.63-4.14-3.11-4.92-12.34-3.21-.4-1.53-.79-3.1-1.27-4.98zm11.39 14.17c-4.87-.03-7.69 1.89-7.81 5.16-.1 2.74 1.61 4.29 4.68 4.25 3.77-.04 5.69-2.27 5.92-6.46.13-2.39-.78-3.28-2.79-2.95zm42.16-15.26c-4.04 10.98-7.9 21.49-11.77 32.01-2.35 6.38-6.2 9.01-13.33 8.95v-5.5a.87.87 0 0 1 .26-.18c8.78-1.07 8.08-3.81 5.54-10.87-2.89-8.03-6.11-15.93-9.16-23.83a2.253 2.253 0 0 1 .73-.51c5.83-.32 5.83-.32 7.93 5.18 1.78 4.65 3.56 9.31 5.66 14.8.81-2.01 1.39-3.33 1.88-4.68 1.34-3.77 2.91-7.49 3.88-11.35.83-3.35 2.5-4.65 5.81-4.04a17.118 17.118 0 0 0 2.57.02zm90.29 29.4h-6.41v-29.9c5.17 0 10.24-.22 15.28.07 5.35.3 8.92 3.85 9.25 9.57.38 6.64.09 13.31.09 20.2h-6.54c0-6.11.15-12.11-.04-18.09-.18-5.38-4.81-7.83-9.29-4.9a5.736 5.736 0 0 0-2.23 3.93c-.26 5.22-.11 10.46-.11 15.69v3.43zm46.05-.78c1.25-2.8 1.97-4.39 2.53-5.65a54.861 54.861 0 0 0 7.59 1.56c.99.07 2.77-1.06 2.96-1.92a4.761 4.761 0 0 0-1.23-3.74c-1.11-1.13-2.85-1.62-4.26-2.48a25.108 25.108 0 0 1-4.93-3.3c-4.15-4.2-2.68-10.58 2.78-12.77a15.353 15.353 0 0 1 13.22 1.48c-.55 1.48-1.11 3.01-1.58 4.28a49.929 49.929 0 0 0-6.95-1 3.415 3.415 0 0 0-2.63 1.92 3.582 3.582 0 0 0 1.36 2.97 33.854 33.854 0 0 0 5.31 2.68c4.79 2.29 6.85 5.77 6.05 10.28-.74 4.14-4.08 6.96-9.22 7-3.41.03-6.83-.78-11-1.31zM55.92 41.83a24.009 24.009 0 0 1-1.52 3.1c-6.08 8.35-18.9 12.1-28.62 8.41-6.76-2.57-12.44-13.02-10.8-19.96a24.96 24.96 0 0 1 1.46-3.41c1.87 9.36 7.83 13.88 15.8 15.23a36.09 36.09 0 0 0 21.13-2.51c.48-.21.99-.34 2.55-.86zm233.61-17.48c0 5.35-.13 10.32.05 15.28.09 2.61 2.03 3.55 4.42 3.39a30.042 30.042 0 0 0 3.85-.74.654.654 0 0 1 .16.29c-.42 2.01 1.81 5.2-1.63 5.85-6.1 1.15-10.52.72-12.7-4.15a11.334 11.334 0 0 1-.86-4.52c-.08-8.22-.06-16.44-.02-24.66.01-2.81.82-3.34 6.42-4.4v7.87h7.7v5.79h-7.39zM49.89 20.02c-2.13.21-3.65.24-5.11.52-2.21.42-4.39 1.01-6.58 1.53a6.222 6.222 0 0 1-1.22.35 7.851 7.851 0 0 0-7.99 9.41c.51 3.28 1.46 6.48 2.3 10.13a6.262 6.262 0 0 1-2.18-.03c-5.61-2.41-9.65-6.48-11.08-12.43a9.027 9.027 0 0 1 1.47-6.75c6.26-7.94 20.74-9.83 29.17-4.18a10.082 10.082 0 0 1 1.22 1.45zM30.4 32.92c2.47-.76 4.22-1.35 6-1.83 4.95-1.33 5.32-2.05 3.3-6.64a9.052 9.052 0 0 1-.27-1.3 16.529 16.529 0 0 1 11.87-.07c2.05.73 3.2 6.07 1.81 8.5a13.841 13.841 0 0 1-10.95 7.3c-4.47.41-8.29-1.66-11.76-5.96zM19.03 58.38c16.5 7.95 31.33 6.31 45.25-5.24.99 3.78.45 6.9-2.33 8.67-3.09 1.96-6.6 3.97-10.12 4.4-5.77.7-11.69.23-17.54.09-6.05-.14-10.49-3.59-15.26-7.92z" fill="#ffaa9f" fill-rule="evenodd"/></svg>