<svg xmlns="http://www.w3.org/2000/svg" viewBox="0 0 125.4 78.1"><style>.st0{fill:#fff}.st1{fill:#37363d}</style><switch><g><ellipse class="st0" cx="62.7" cy="53.6" rx="62.7" ry="24.5" id="Слой_2"/><g id="Слой_4"><path class="st1" d="M54 47.7h34.8v4.1H54v-4.1z"/><path d="M55.4 35.4l-.2.3-.7 14.6 13.8-6.7-12.9-8.2z" fill="#fff" stroke="#fba89e" stroke-width="3" stroke-linecap="round" stroke-linejoin="round" stroke-miterlimit="10"/><path d="M80.5 1.6l-25 33.6 12.9 8 25.2-32.7-13.1-8.9z" fill="#37363d" stroke="#fba89e" stroke-width="3" stroke-linecap="round" stroke-linejoin="round" stroke-miterlimit="10"/></g><g id="Слой_5"><path class="st0" d="M31.5 31c-.6 0-1-.4-1-1V12.9c0-.6.4-1 1-1h32c.6 0 1 .4 1 1V30c0 .6-.4 1-1 1h-32z"/><path class="st1" d="M63.5 12.9V30h-32V12.9h32m0-2h-32c-1.1 0-2 .9-2 2V30c0 1.1.9 2 2 2h32c1.1 0 2-.9 2-2V12.9c0-1.1-.9-2-2-2z"/><path class="st1" d="M48.2 16.5V15h-1.4v1.5c-1.2.3-2.1 1.4-2.1 2.8 0 1.6 1.3 2.9 2.9 2.9.8 0 1.4.6 1.4 1.4s-.7 1.4-1.5 1.4-1.4-.6-1.4-1.4v-.7h-1.4v.7c0 1.3.9 2.4 2.1 2.8v1.5h1.4v-1.5c1.2-.3 2.1-1.4 2.1-2.8 0-1.6-1.3-2.9-2.9-2.9-.8 0-1.4-.6-1.4-1.4s.6-1.4 1.4-1.4c.8 0 1.4.6 1.4 1.4v.7h1.4v-.7c.2-1.3-.8-2.4-2-2.8zM58 20.5h1.9v1.9H58v-1.9zM53.3 20.5h1.9v1.9h-1.9v-1.9zM35.1 20.5H37v1.9h-1.9v-1.9zM39.8 20.5h1.9v1.9h-1.9v-1.9z"/></g></g></switch></svg>