<svg xmlns="http://www.w3.org/2000/svg" width="256.969" height="64" viewBox="0 0 256.969 64" preserveAspectRatio="xMinYMid"><path data-name="pay pal" d="M97.611 27.89c-.779 5.2-4.681 5.2-8.454 5.2H87.01l1.507-9.72a1.187 1.187 0 0 1 1.17-1.02h.985c2.571 0 5 0 6.248 1.49.747.89.98 2.22.691 4.05zM95.969 14.3H81.737a1.988 1.988 0 0 0-1.955 1.7l-5.758 37.2a1.2 1.2 0 0 0 1.175 1.4h6.794a1.988 1.988 0 0 0 1.955-1.7L85.5 42.86a1.989 1.989 0 0 1 1.953-1.7h4.506c9.376 0 14.786-4.63 16.2-13.79.637-4.01.027-7.16-1.815-9.37-2.024-2.42-5.611-3.7-10.375-3.7zm33.044 26.94a7.636 7.636 0 0 1-7.69 6.63 5.684 5.684 0 0 1-4.576-1.87 5.993 5.993 0 0 1-1.069-4.88 7.674 7.674 0 0 1 7.637-6.69 5.718 5.718 0 0 1 4.545 1.89 6.11 6.11 0 0 1 1.153 4.92zm9.5-13.52H131.7a1.191 1.191 0 0 0-1.171 1.02l-.3 1.94-.479-.7c-1.475-2.19-4.765-2.92-8.05-2.92-7.53 0-13.963 5.82-15.217 13.98a13.3 13.3 0 0 0 2.539 10.67c2.077 2.49 5.05 3.53 8.586 3.53a12.957 12.957 0 0 0 9.434-3.97l-.3 1.93a1.205 1.205 0 0 0 1.17 1.4h6.14a1.987 1.987 0 0 0 1.953-1.71l3.683-23.78a1.192 1.192 0 0 0-1.175-1.39zm36.3 0h-6.848a1.981 1.981 0 0 0-1.639.88l-9.446 14.19-4-13.63a1.98 1.98 0 0 0-1.9-1.44h-6.731a1.2 1.2 0 0 0-1.126 1.6l7.544 22.57-7.092 10.2a1.21 1.21 0 0 0 .968 1.91h6.84a1.967 1.967 0 0 0 1.626-.86l22.78-33.52a1.209 1.209 0 0 0-.976-1.9zm24.318.17c-.776 5.2-4.678 5.2-8.454 5.2h-2.145l1.508-9.72a1.188 1.188 0 0 1 1.17-1.02h.99c2.568 0 4.993 0 6.248 1.49.741.89.968 2.22.683 4.05zm-1.642-13.59h-14.236a1.987 1.987 0 0 0-1.951 1.7l-5.757 37.2a1.2 1.2 0 0 0 1.171 1.4h7.3a1.4 1.4 0 0 0 1.365-1.19l1.633-10.55a1.985 1.985 0 0 1 1.952-1.7h4.5c9.376 0 14.785-4.63 16.2-13.79.639-4.01.025-7.16-1.818-9.37-2.009-2.42-5.595-3.7-10.359-3.7zm33.043 26.94a7.635 7.635 0 0 1-7.69 6.63 5.69 5.69 0 0 1-4.577-1.87 6.007 6.007 0 0 1-1.07-4.88 7.679 7.679 0 0 1 7.639-6.69 5.72 5.72 0 0 1 4.546 1.89 6.092 6.092 0 0 1 1.152 4.92zm9.5-13.52h-6.812a1.184 1.184 0 0 0-1.169 1.02l-.3 1.94-.477-.7c-1.476-2.19-4.765-2.92-8.049-2.92-7.531 0-13.962 5.82-15.215 13.98a13.3 13.3 0 0 0 2.537 10.67c2.081 2.49 5.049 3.53 8.586 3.53a12.956 12.956 0 0 0 9.433-3.97l-.3 1.93a1.207 1.207 0 0 0 1.175 1.4h6.137a1.988 1.988 0 0 0 1.952-1.71l3.686-23.78a1.2 1.2 0 0 0-1.184-1.39zm8.036-12.4l-5.842 37.88a1.2 1.2 0 0 0 1.169 1.4h5.872a1.987 1.987 0 0 0 1.956-1.7l5.761-37.21a1.2 1.2 0 0 0-1.171-1.39h-6.575a1.19 1.19 0 0 0-1.17 1.02zM45.15 4.76c-2.9-3.34-8.135-4.77-14.838-4.77H10.86a2.8 2.8 0 0 0-2.752 2.37l-8.1 51.95a1.684 1.684 0 0 0 1.649 1.95h12.008l3.016-19.35-.092.61a2.786 2.786 0 0 1 2.743-2.37h5.705c11.213 0 19.987-4.6 22.553-17.93.077-.39.2-1.15.2-1.15.728-4.93-.005-8.27-2.64-11.31zm5.678 13.83c-2.787 13.12-11.678 20.06-25.79 20.06h-5.116l-3.818 24.64h8.3a2.441 2.441 0 0 0 2.4-2.08l.1-.53 1.911-12.23.124-.67a2.439 2.439 0 0 1 2.4-2.08h1.517c9.807 0 17.484-4.03 19.727-15.68.904-4.67.469-8.59-1.755-11.43z" fill="#ffaa9f" fill-rule="evenodd"/></svg>