<svg xmlns="http://www.w3.org/2000/svg" viewBox="0 0 125.4 78.1"><style>.st1{fill:#37363d}.st2{fill:#fba89e}</style><switch><g><ellipse cx="62.7" cy="53.6" rx="62.7" ry="24.5" fill="#fff" id="Слой_2"/><g id="Слой_3"><path class="st1" d="M77.2 53.5h-29C41.5 53.5 36 48 36 41.2v-29C36 5.5 41.5 0 48.2 0h29C84 0 89.4 5.5 89.4 12.2v29c0 6.8-5.4 12.3-12.2 12.3zm-29-51.8c-5.8 0-10.5 4.7-10.5 10.5v29c0 5.8 4.7 10.5 10.5 10.5h29c5.8 0 10.5-4.7 10.5-10.5v-29c0-5.8-4.7-10.5-10.5-10.5h-29z"/><path class="st1" d="M87.3 34.7c-2.5 7.9-8.8 14.1-16.6 16.6l-4.4-6.5.6-5.2c4.1-1.3 7.4-4.6 8.8-8.8l5.2-.6 6.4 4.5zM54.7 2.1l4.1 5.5-.3 6.1c-4.1 1.3-7.4 4.6-8.8 8.8l-7.4 1.4-4.2-5.2c2.5-7.8 8.7-14 16.6-16.6zM58.5 39.7l.5 5.5-4.3 6.1c-7.9-2.6-14.1-8.8-16.6-16.6l5.8-4.1 5.9.4c1.3 4.1 4.5 7.4 8.7 8.7zM87.3 18.7L82.5 24l-6.9-1.5c-1.3-4.1-4.6-7.4-8.8-8.8l-.6-6.5 4.4-5.1c8 2.6 14.2 8.8 16.7 16.6z"/><g><path class="st2" d="M38.1 18.7l11.6 3.8c-.4 1.3-.7 2.7-.7 4.2s.2 2.9.7 4.2l-11.6 3.8c-.8-2.5-1.3-5.2-1.3-8s.5-5.4 1.3-8zM70.7 51.4c-2.5.8-5.2 1.3-8 1.3s-5.5-.4-8-1.3l3.8-11.6c1.3.4 2.7.7 4.2.7s2.9-.2 4.2-.7l3.8 11.6zM87.3 18.7c.8 2.5 1.3 5.2 1.3 8s-.4 5.5-1.3 8L75.7 31c.4-1.3.7-2.7.7-4.2s-.2-2.9-.7-4.2l11.6-3.9zM70.7 2.1l-3.8 11.6c-1.3-.4-2.7-.7-4.2-.7s-2.9.2-4.2.7L54.7 2.1c2.5-.8 5.2-1.3 8-1.3 2.8.1 5.5.5 8 1.3z"/></g></g></g></switch></svg>