<svg xmlns="http://www.w3.org/2000/svg" viewBox="0 0 125.4 76.1"><style>.st0{fill:#fff}.st1{fill:#37363d}.st2{fill:#fba89e}</style><switch><g><ellipse class="st0" cx="62.7" cy="51.6" rx="62.7" ry="24.5" id="Слой_2"/><g id="Слой_4"><path class="st1" d="M85.4 46.7h-8.3c-.3 0-.5.3-.5.6l.7 2.8c0 .2.2.4.5.4h6.9c.2 0 .4-.2.5-.4l.7-2.8c0-.3-.2-.6-.5-.6zM55.9 46.7h-8.3c-.3 0-.5.3-.5.6l.7 2.8c0 .2.2.4.5.4h6.9c.2 0 .4-.2.5-.4l.7-2.8c0-.3-.2-.6-.5-.6z"/><path class="st2" d="M90.2 47.8H42.8c-.4 0-.8-.3-.8-.8V.8c0-.5.4-.8.8-.8h47.4c.4 0 .8.3.8.8V47c-.1.4-.4.8-.8.8z"/><path class="st1" d="M46.3 3.6h40.3v40.6H46.3z"/><path class="st2" d="M82.2 29.4c-.9 0-1.5-.5-1.5-1v-8.6c0-.6.7-1 1.5-1 .9 0 1.5.5 1.5 1v8.6c0 .5-.6 1-1.5 1z"/><circle class="st2" cx="75.7" cy="24.2" r="1.9"/></g><g id="Слой_5"><path class="st0" d="M45.2 51.1c-.5 0-1.1-.3-2.2-.9l-.4-.2c-4.4-2.2-7.7-5.8-10-10.8-1.5-3.2-2.3-6.7-2.6-10.7-.1-1.5-.1-3.1-.2-4.6v-.3c0-.2.1-.4.2-.6.6-.9 1.1-1.6 1.6-2.3.1-.1.3-.3.5-.3 2.6-.4 5.1-.8 7.7-1.2l.9-.1c.3-.1.7-.1 1-.2.9-.2 1.9-.3 2.8-.4h.6c.7 0 1.3.1 1.9.2 2.1.3 4.2.6 6.3 1 1.6.2 3.1.5 4.7.7.6.1.8.2 1 .6.2.4.5.8.9 1.3.7.8 1 1.5.8 2.1v.1c0 5.7-.9 10.3-2.7 14.4-2.2 5.1-5.5 8.7-9.9 10.9l-.2.1c-1.5.9-2.2 1.2-2.7 1.2z"/><path class="st1" d="M45.1 19.1c.6 0 1.3.1 1.8.2 2.1.3 4.2.6 6.3 1 1.6.2 3.1.5 4.7.7.5.1.6.2.7.3.2.4.5.9 1 1.4.6.7.8 1.2.7 1.6v.3c0 5.7-.9 10.2-2.7 14.2-2.2 5-5.3 8.5-9.6 10.7l-.2.1c-1.3.6-2 1-2.4 1-.4 0-1-.3-2-.8l-.4-.2c-4.3-2.2-7.5-5.6-9.7-10.6-1.5-3.2-2.3-6.6-2.6-10.5-.1-1.5-.1-3-.2-4.5v-.3s0-.2.1-.3c.6-.9 1.1-1.6 1.6-2.3 0-.1.1-.1.1-.1 2.5-.4 5.1-.8 7.6-1.2l1-.2c.3-.1.7-.1 1-.2 1-.2 1.9-.3 2.8-.4 0 .1.2.1.4.1m0-1h-.6c-1.3.1-2.6.4-3.9.6-2.9.5-5.7.9-8.6 1.4-.3 0-.6.3-.8.5-.6.8-1.1 1.5-1.7 2.3-.2.2-.3.6-.3.8 0 1.6.1 3.2.2 4.8.3 3.8 1.1 7.4 2.7 10.8 2.2 4.8 5.5 8.6 10.2 11 1.5.7 2.1 1.1 2.9 1.1.7 0 1.5-.4 3.1-1.2 4.8-2.4 8-6.3 10.1-11.2 2-4.6 2.7-9.4 2.7-14.6.2-.9-.2-1.7-.9-2.5l-.9-1.2c-.3-.5-.7-.6-1.3-.7-3.6-.6-7.3-1.1-10.9-1.7-.7-.1-1.4-.2-2-.2z"/><g><path class="st1" d="M42.5 38.2H45c.3 0 .5-.1.7-.2.2-.2.2-.6.2-.9v-.2c0-.3 0-.6-.2-.8-.2-.2-.4-.2-.7-.2h-5.3c-1.2 0-2.1-.9-2.1-2.1 0-.6.2-1.1.6-1.5.4-.4.9-.6 1.5-.6H45c.3 0 .5-.1.7-.2.1-.2.2-.4.2-.7v-.5c0-.3 0-.5-.2-.7-.2-.2-.5-.2-.7-.2h-2.2c-1.2 0-2.5 0-3.7.1-1.3 0-2.4.7-3.1 1.8-1 1.5-1.1 3-.3 4.5s2.2 2.3 4.1 2.4h2.7zM39.7 28.6h11.8c.2 0 .3-.1.3-.3v-1.8c0-.2-.1-.3-.3-.3H39.7c-.2 0-.3.1-.3.3v1.8c0 .2.2.3.3.3z"/><path class="st1" d="M51.5 32.6H39.8c-.2 0-.3.1-.3.3v1.8c0 .2.1.3.3.3h11.8c.2 0 .3-.1.3-.3v-1.8c0-.1-.2-.3-.4-.3zM51.5 39H39.8c-.2 0-.3.1-.3.3v1.8c0 .2.1.3.3.3h11.8c.2 0 .3-.1.3-.3v-1.8c-.1-.2-.2-.3-.4-.3z"/></g></g></g></switch></svg>