<svg xmlns="http://www.w3.org/2000/svg" viewBox="0 0 95.6 63.8"><style>.st4{fill:#fff}.st5{fill:#34333a}</style><switch><g><ellipse cx="47.8" cy="45.2" rx="47.8" ry="18.6" fill="#d4e8fa" id="Слой_2"/><g id="Слой_5"><path class="st4" d="M67.1 46.6c-.2 0-.4-.1-.5-.2-.1-.1-.2-.3-.2-.4v-9.5c0-.9.3-1.7 1-2.4l6.8-7c.3-.3.7-.6 1.2-.7.2 0 .4-.1.5-.1v-7.4c0-1.3 1.1-2.4 2.4-2.4h.5c1.1.2 2 1.3 2 2.5v12.9c0 .5-.2 1.1-.6 1.5L74 41.7V46c0 .3-.3.6-.6.6h-6.3z"/><path class="st5" d="M78.4 17.1h.4c.9.2 1.5 1 1.5 1.9v12.9c0 .4-.2.8-.4 1.1l-6.4 8.4V46H67.1v-9.5c0-.7.3-1.4.8-1.9l6.8-7c.2-.2.5-.4.9-.5h.4c.2 0 .3 0 .5.1l.6.2c.7.7.8 1.8.1 2.5l-3.5 3.6.7.8 3.3-3.4c.7-.8 1.2-2 .7-3-.4-.9-1.2-1.4-1.9-1.5v-7.2c0-1.3.8-2.1 1.9-2.1m0-1.2c-.8 0-1.6.3-2.1.9-.6.6-.9 1.3-.9 2.1v6.9c-.6.1-1 .4-1.4.8l-6.8 7c-.7.7-1.1 1.7-1.1 2.8V46c0 .5.3.9.7 1.1.2.1.3.1.5.1h6.3c.7 0 1.2-.5 1.2-1.2v-4.2l6.1-8.1c.4-.5.7-1.2.7-1.9V19c0-1.5-1-2.8-2.4-3.1h-.8z"/><g><path class="st4" d="M22.9 46.6c-.3 0-.6-.3-.6-.6v-4.4L16 33.4c-.4-.4-.5-1-.5-1.5V19c0-1.2.8-2.2 2-2.5h.5c1.3 0 2.4 1.1 2.4 2.4v7.4c.2 0 .3 0 .5.1.5.1.9.4 1.2.7l6.8 7c.6.6 1 1.5 1 2.4V46c0 .3-.2.5-.4.6-.1 0-.2.1-.3.1h-6.3z"/><path class="st5" d="M17.9 17.1c1 0 1.8.8 1.8 1.8v7.2c-.7.2-1.5.7-1.9 1.5-.4 1 0 2.2.7 3l3.3 3.4.7-.8-3.5-3.6c-.7-.7-.6-1.8.1-2.5.3-.2.3-.2.6-.2.2 0 .3-.1.5-.1h.4c.3.1.6.3.9.5l6.8 7c.5.5.8 1.2.8 1.9V46H22.7v-4.6L16.5 33c-.3-.3-.4-.7-.4-1.1V19c0-.9.6-1.7 1.5-1.9h.3m0-1.2c-.2 0-.4 0-.6.1-1.4.3-2.4 1.6-2.4 3.1V32c0 .7.2 1.3.7 1.9l6.1 8.1v4c0 .7.5 1.2 1.2 1.2h6.3c.2 0 .4-.1.6-.2.4-.2.6-.6.6-1.1v-9.5c0-1-.4-2-1.1-2.8l-6.8-7c-.5-.3-1-.6-1.5-.7V19c-.1-1.7-1.4-3.1-3.1-3.1z"/></g></g><g id="Слой_8"><path class="st5" d="M48.2 39.2c5.4 0 10-2 13.9-5.8 3.8-3.8 5.8-8.4 5.8-13.9 0-5.4-1.9-10-5.8-13.9C58.2 1.9 53.6 0 48.2 0S38.1 1.9 34.4 5.7c-3.9 3.8-5.8 8.5-5.8 13.9s1.9 10 5.8 13.9c3.7 3.8 8.4 5.7 13.8 5.7z"/><path d="M47.5 12.1c-2.4 1.4-2.1 5.7-2.1 5.7s-1.7-.6-1.5-4.1c-4.5 4-4.8 7.3-4.1 9.8-2 2.1-2.8 4-2.9 4.1-.2.5.1 1 .4 1.1.2.1.7.1 1-.3 0 0 1.1-1.5 2.9-3.6C56.6 27.4 57.6 6.9 57.6 6.9c-3 2.4-6.3 3.2-10.1 5.2z" fill="#fba89e"/><path class="st4" d="M55.4 27.3H42.1c-.5 0-.8.4-.8.8 0 .5.4.8.8.8h13.2c.5 0 .8-.4.8-.8.1-.5-.3-.8-.7-.8z"/></g></g></switch></svg>