<svg xmlns="http://www.w3.org/2000/svg" viewBox="0 0 133.71 137.25" width="133.71" height="137.25" preserveAspectRatio="xMinYMid"><path d="M39.32 77.29c-4.81 20.34-5.43 23.55-6.05 27.05h-.1c-.82-4.78-1.19-6.74-5.53-27.05h-8.22c-3.93 19.42-4.49 23.19-5.16 27.05h-.1c-.67-4.22-1.15-6.8-5.9-27.05H0l10.49 37h7.23c3.98-19.07 4.59-21.75 5.74-28.86h.1c1.23 7.1 1.91 10.72 5.74 28.86h7.44l10.44-37h-7.86zm-7.1 55.51c0-3.29-.78-3.83-2.24-4.46a4.2 4.2 0 0 0 2.73-4.2c0-1.51-.85-4.97-5.55-4.97h-8.93v17.6h3.62v-6.89h3.81c2.73 0 2.88.93 2.88 3.34a11.558 11.558 0 0 0 .39 3.55h4.08v-.46c-.78-.29-.78-.92-.79-3.51zm-6.05-5.87h-4.32v-4.72h4.6c2.16 0 2.58 1.38 2.58 2.31 0 1.74-.94 2.41-2.86 2.41zm-24.5-7.75v3.11h5.34v14.49h3.68v-14.49h5.33v-3.11H1.67zm92.44-94.92c-.09-1.55-.14-2.44-.14-2.44s-.14.88-.39 2.42c-.11.76-.27 1.68-.44 2.74a26.28 26.28 0 0 1-.99 3.43 17.881 17.881 0 0 1-1.52 3.85 20.14 20.14 0 0 1-2.27 3.94c-.45.63-.91 1.27-1.36 1.92-.49.63-1.12 1.17-1.67 1.76a23.388 23.388 0 0 1-3.66 3.22 39.191 39.191 0 0 1-4.05 2.61c-1.5.65-2.8 1.45-4.28 1.93a34.182 34.182 0 0 1-4.15 1.38c-1.31.43-2.64.64-3.8.92-.74.13-1.44.24-2.09.34.06-.2.14-.39.21-.59a34.679 34.679 0 0 0 1.4-5.91c.13-1.04.24-2.1.31-3.18a21.922 21.922 0 0 0-.07-3.42 27.444 27.444 0 0 0-3.07 1.53c-.92.57-1.8 1.17-2.67 1.78a36.262 36.262 0 0 0-4.58 4 44.236 44.236 0 0 0-6.92 9.34l-.24.42a5.765 5.765 0 0 0 .76 6.65 43.53 43.53 0 0 0 7.54 6.75 34.79 34.79 0 0 0 4.58 2.72 26.178 26.178 0 0 0 5.37 2.05 27.707 27.707 0 0 0-.99-5.65 32.212 32.212 0 0 0-1.74-4.87c1.51-.49 3.34-1.17 5.4-2.04 1.33-.63 2.79-1.23 4.25-2.07a43.434 43.434 0 0 0 4.51-2.71c1.56-.93 2.99-2.24 4.51-3.37a46.792 46.792 0 0 0 4.08-4.13 29.845 29.845 0 0 0 3.4-4.64c.47-.82 1.01-1.58 1.41-2.41.36-.85.72-1.68 1.06-2.5a23.184 23.184 0 0 0 1.52-4.83 18.932 18.932 0 0 0 .72-4.4 28.1 28.1 0 0 0 .24-3.7c-.08-1.09-.12-2.05-.18-2.84zm-9.17-12.23a43.356 43.356 0 0 0-7.33-6.97 33.812 33.812 0 0 0-4.5-2.86A27.57 27.57 0 0 0 67.8-.01a27.079 27.079 0 0 0 .82 5.68 32.932 32.932 0 0 0 1.6 4.92c-1.53.44-3.38 1.07-5.46 1.88-1.35.59-2.83 1.14-4.31 1.94a46.583 46.583 0 0 0-4.6 2.57c-1.58.89-3.05 2.15-4.59 3.24a45.5 45.5 0 0 0-4.21 4.01 30.067 30.067 0 0 0-3.53 4.54c-.5.8-1.07 1.54-1.49 2.36-.39.83-.77 1.66-1.14 2.47a23.167 23.167 0 0 0-1.66 4.77 19.2 19.2 0 0 0-.85 4.38 29.242 29.242 0 0 0-.33 3.69c.03 1.1.06 2.05.08 2.84.05 1.56.07 2.45.07 2.45s.16-.88.45-2.41c.14-.76.32-1.67.52-2.73a25.758 25.758 0 0 1 1.09-3.39 17.325 17.325 0 0 1 1.64-3.81 21.418 21.418 0 0 1 2.39-3.87c.47-.61.95-1.24 1.43-1.87.5-.62 1.15-1.15 1.71-1.72a22.822 22.822 0 0 1 3.74-3.1 39.02 39.02 0 0 1 4.13-2.49 46.255 46.255 0 0 1 4.33-1.8 34.734 34.734 0 0 1 4.19-1.26c1.33-.39 2.66-.56 3.84-.81.75-.1 1.44-.19 2.1-.27-.08.19-.15.38-.24.58a36.265 36.265 0 0 0-1.58 5.86c-.16 1.05-.3 2.1-.41 3.18a22.888 22.888 0 0 0-.02 3.42 25.374 25.374 0 0 0 3.11-1.44c.93-.55 1.85-1.11 2.72-1.69a35.317 35.317 0 0 0 4.71-3.87 44.283 44.283 0 0 0 7.2-9.13l.25-.41a5.755 5.755 0 0 0-.56-6.67zm26.27 95.7v-9.58h18.08v-6.54h-18.08v-7.77h19.68V77.3H103.6v37h28.16v-6.57h-20.55zm-11.17 14.56v-3.12H87.48v17.62h3.69v-7.41h7.77v-3.12h-7.77v-3.97h8.87zm-4.37-16.35c0-6.91-1.64-8.05-4.69-9.39 3.67-1.23 5.74-4.74 5.74-8.8 0-3.2-1.82-10.46-11.7-10.46H66.27v36.99h7.61V99.79h8.01c5.73 0 6.04 1.96 6.04 7.02a24.255 24.255 0 0 0 .83 7.48h8.57v-.98c-1.66-.62-1.66-1.96-1.66-7.37zM82.96 93.57h-9.08v-9.89h9.66c4.55 0 5.43 2.88 5.43 4.84-.01 3.65-1.97 5.05-6.01 5.05zm23.18 40.08v-4.54h8.6v-3.12h-8.6v-3.7h9.37v-3.12h-12.99v17.6h13.41v-3.12h-9.79zm26.79-.85c0-3.29-.8-3.83-2.25-4.46a4.2 4.2 0 0 0 2.75-4.2c0-1.51-.87-4.97-5.57-4.97h-8.92v17.6h3.62v-6.89h3.81c2.72 0 2.88.93 2.88 3.34a11.558 11.558 0 0 0 .39 3.55h4.07v-.46c-.78-.29-.78-.92-.78-3.51zm-6.05-5.87h-4.32v-4.72h4.59c2.17 0 2.59 1.38 2.59 2.31 0 1.74-.93 2.41-2.86 2.41zm-46.85-.17l-4.29-1.06c-.74-.17-1.88-.46-1.88-1.83 0-1.6 1.68-2.11 3.07-2.11 3.23 0 3.51 1.87 3.63 2.64h3.52c-.02-2.15-1.47-5.69-6.88-5.69-5.73 0-6.78 3.47-6.78 5.43 0 3.87 2.75 4.51 5.6 5.17l1.89.44c1.88.45 3.2.81 3.2 2.18 0 1.87-1.95 2.28-3.68 2.28-3.23 0-3.73-1.87-3.75-2.84h-3.52c0 2.18 1.1 5.88 7.55 5.88 1.54 0 6.95-.46 6.95-5.76 0-3.16-2.21-4.15-4.63-4.73zM51.28 77.29h7.75v36.99h-7.75V77.29zm-6.59 41.89h-4.26l-6.3 17.6h3.89l1.23-3.63h6.51l1.14 3.63h4.01zm-4.45 10.94l2.27-6.97h.03l2.2 6.97h-4.5zm23.82-10.94v12.26h-.04L57 119.18h-3.88v17.6h3.43v-12.55h.06l7.2 12.55h3.7v-17.6h-3.45z" fill="#ffaa9f" fill-rule="evenodd"/></svg>