<svg xmlns="http://www.w3.org/2000/svg" xmlns:xlink="http://www.w3.org/1999/xlink" width="57" height="57" viewBox="0 0 57 57" preserveAspectRatio="xMinYMid"><defs><path id="a" d="M733 5795c11.046 0 20 8.954 20 20s-8.954 20-20 20-20-8.954-20-20 8.954-20 20-20z"/><path id="d" d="M744.215 5813.807c0 2.178-.654 4.04-1.957 5.58-1.304 1.544-2.851 2.315-4.642 2.315-1.218 0-2.14-.461-2.766-1.392-.832.967-1.831 1.455-3 1.455-1.31 0-2.426-.545-3.358-1.64-.932-1.093-1.396-2.533-1.396-4.315 0-1.824.521-3.316 1.572-4.474 1.046-1.158 2.308-1.74 3.778-1.74.927 0 1.782.318 2.56.945l.197-.704h3.057l-.89 7.187c-.052.493-.08.918-.08 1.28 0 .45.21.673.631.673.778 0 1.529-.482 2.25-1.456.72-.97 1.084-2.188 1.084-3.648 0-2.136-.788-3.908-2.365-5.316-1.576-1.409-3.511-2.112-5.799-2.112-2.484 0-4.58.86-6.28 2.571-1.705 1.715-2.561 3.85-2.561 6.411 0 2.358.797 4.414 2.388 6.163 1.596 1.751 3.846 2.627 6.75 2.627 1.824 0 3.697-.406 5.607-1.22a1.432 1.432 0 0 1 1.891.765 1.412 1.412 0 0 1-.774 1.83c-2.196.93-4.437 1.394-6.72 1.394-3.788 0-6.797-1.139-9.037-3.417-2.23-2.279-3.35-4.994-3.35-8.155 0-3.3 1.177-6.054 3.522-8.27 2.345-2.216 5.187-3.323 8.522-3.323 3.17 0 5.827.976 7.963 2.921 2.14 1.947 3.204 4.305 3.204 7.065zm-9.428 1.333c0-.747-.22-1.342-.658-1.79-.44-.452-.942-.672-1.505-.672-.65 0-1.195.302-1.634.897-.44.596-.66 1.38-.66 2.354 0 .789.158 1.444.473 1.974.31.53.722.795 1.233.795.75 0 1.394-.364 1.935-1.082a4.06 4.06 0 0 0 .816-2.476z"/><mask id="c" width="2.06" height="2.06" x="-1.03" y="-1.03"><path fill="#fff" d="M711.9 5793.9h42.2v42.2h-42.2z"/><use xlink:href="#a"/></mask><filter id="b" width="88.9" height="86.5" x="684.1" y="5775" filterUnits="userSpaceOnUse"><feOffset dx="-8.9" dy="6.5" in="SourceGraphic" result="FeOffset1075Out"/><feGaussianBlur in="FeOffset1075Out" result="FeGaussianBlur1076Out" stdDeviation="3.56 3.56"/></filter></defs><g transform="translate(-696 -5793)"><g filter="url(#b)"><use fill="none" stroke="#e7998f" stroke-opacity=".19" stroke-width="2.2" mask="url(&quot;#c&quot;)" xlink:href="#a"/><use fill="#e7998f" fill-opacity=".19" xlink:href="#a"/></g><use fill="#ffaa9f" xlink:href="#a"/></g><use fill="#fff" xlink:href="#d" transform="translate(-696 -5793)"/></svg>