<svg xmlns="http://www.w3.org/2000/svg" xmlns:xlink="http://www.w3.org/1999/xlink" width="87" height="61"><defs><path id="a" d="M1490.002 4015.369c.012-.23.035-.458.035-.692 0-7.454-6.112-13.52-13.625-13.52s-13.626 6.066-13.626 13.52c0 7.455 6.113 13.52 13.626 13.52a13.6 13.6 0 0 0 7.102-2.004 25.194 25.194 0 0 1-22.825 14.484c-1.158 0-2.095.93-2.095 2.081 0 1.15.937 2.08 2.095 2.08 16.184 0 29.348-13.063 29.348-29.12 0-.12-.016-.235-.035-.35zm-35.601.348c0-.12-.016-.235-.036-.348.012-.23.036-.458.036-.692 0-7.454-6.113-13.52-13.626-13.52-7.513 0-13.625 6.066-13.625 13.52 0 7.455 6.112 13.52 13.625 13.52 2.604 0 5.031-.741 7.103-2.004-3.999 8.543-12.723 14.484-22.824 14.484-1.16 0-2.097.93-2.097 2.081 0 1.15.937 2.08 2.097 2.08 16.183 0 29.347-13.063 29.347-29.12z"/><mask id="c" width="2.03" height="2.05" x="-1.01" y="-1.02"><path fill="#fff" d="M1422 4000h69v46h-69z"/><use xlink:href="#a"/></mask><filter id="b" width="117.9" height="91.4" x="1391.1" y="3982" filterUnits="userSpaceOnUse"><feOffset dx="-12.9" dy="9.4" in="SourceGraphic" result="FeOffset1046Out"/><feGaussianBlur in="FeOffset1046Out" result="FeGaussianBlur1047Out" stdDeviation="3.2 3.2"/></filter></defs><g transform="translate(-1403 -4001)"><g filter="url(#b)"><use fill="none" stroke="#e7998f" stroke-opacity=".14" stroke-width="2" mask="url(&quot;#c&quot;)" xlink:href="#a"/><use fill="#e7998f" fill-opacity=".14" xlink:href="#a"/></g><use fill="#ffaa9f" xlink:href="#a"/></g></svg>