<svg id="_10" xmlns="http://www.w3.org/2000/svg" viewBox="0 0 1921.1 1368.7" width="1921" height="1368.7" preserveAspectRatio="xMinYMid"><style>.st1{fill:#fff}</style><switch><g><path fill="#f1f3f5" d="M.4.8h1919.8v1367H.4z"/><path class="st1" d="M1042.8 1361.9c-7.5-20.6-10.2-32.5-17.5-56.1-21-68.2-44.8-145.6-98.6-237.5-71.2-121.5-203-186.8-381.2-188.7-95-1-242.2-73.1-258.4-267.7-18-216.1-104.8-313.6-174.4-357.3-24.3-15.2-50.6-26.7-78.3-34.1-11.4-3.1-22.9-5.4-34.5-7.1.2-3 .1-3.9.2-4.8 11.9 1.6 23.2 3.3 34.9 6.4 28.4 7.5 55.4 19.3 80.3 34.8 45.1 28.2 82.5 68.5 111.2 119.9 35.8 64 58 145.3 66 241.7 15.9 190.9 160 261.7 253 262.7 71.5.8 136.1 11.6 192 32.2 85.1 31.3 150.3 84.9 193.8 159.2 54.2 92.5 79.1 173.5 99.1 238.7 7.4 24.1 10.3 36.5 18 57.5 2.3 5.9-5.6 3.3-5.6.2z"/><path class="st1" d="M1920 355.1c-20.6 7.5-42.7 14.3-66.3 21.5-68.3 21-145.6 44.8-237.6 98.6-121.6 71.2-186.8 203-188.8 381.2-1 95-73.2 242.1-267.8 258.4-216.2 18-313.7 104.8-357.4 174.4-15.2 24.3-25.9 42.6-33.4 70.2-1.1 4.6-2.7 3.7-6.2 7.4 7.5-28.4 19.3-55.4 34.8-80.3 28.2-45.1 68.6-82.5 119.9-111.2 64-35.8 145.3-58 241.8-66 191-15.9 261.8-160 262.8-253 .8-71.5 11.6-136.1 32.2-192 31.3-85.1 84.9-150.3 159.3-193.8 92.6-54.2 173.6-79.1 238.8-99.1 24.2-7.4 46.7-14.4 67.7-22 1.4-2.1 1.8 5.7.2 5.7z"/><path d="M1920.2 1366.5c-1.9 2.5-525.3 2.4-797 1.8-406.5-.3-946.5-1.1-1120.8-.6-3.4-2.6-2-954.3-1.1-957C68.1 464.1 134.5 564 150.1 751.1c15.9 190.7 118.4 299.7 255.7 265.4 601.8-150.1 478.9 323.9 1017.4 172.2l1.2-.3c101.9-51.2 143.9-150 144.7-223.2 1.1-97.2 20.9-284.5 190.2-383.5 60.1-35.1 110.9-57.7 160.1-74.8 1.8 2.3-.1 567.4.8 859.6z" fill="#e1eeff"/></g></switch></svg>