<svg xmlns="http://www.w3.org/2000/svg" xmlns:xlink="http://www.w3.org/1999/xlink" width="1922" height="1165"><defs><path id="a" d="M1046.613 6802.337c-7.464-20.593-14.249-42.662-21.494-66.228-20.976-68.23-44.75-145.564-98.606-237.526-71.16-121.52-202.981-186.763-381.217-188.675-94.974-1.019-242.15-73.142-258.352-267.66-18.03-216.148-104.785-313.575-174.387-357.244-27.642-17.344-54.846-27.823-78.252-34.14a284.987 284.987 0 0 0-34.524-7.077c-3.245 2.434-.373-4.633-.27-5.489a290.561 290.561 0 0 1 35.374 7.13c23.986 6.394 51.92 17.066 80.293 34.825 45.085 28.222 82.486 68.546 111.163 119.85 35.756 63.97 57.964 145.289 66.005 241.697 15.901 190.914 160.018 261.697 253.008 262.695 71.46.767 136.057 11.584 191.996 32.152 85.086 31.285 150.305 84.849 193.844 159.202 54.173 92.507 79.09 173.55 99.109 238.67 7.42 24.135 14.35 46.679 22.038 67.649 2.135 5.884-5.732 3.28-5.728.169z"/><path id="b" d="M1919.778 5785.386c-20.601 7.464-42.68 14.25-66.254 21.495-68.256 20.975-145.618 44.75-237.615 98.606-121.566 71.159-186.833 202.981-188.745 381.216-1.02 94.974-73.17 242.151-267.762 258.352-216.23 18.031-313.694 104.785-357.38 174.388-17.35 27.642-27.833 54.846-34.151 78.252-1.06 4.618-5.635 7.672-5.438-.58 6.396-23.987 17.071-51.92 34.838-80.293 28.232-45.086 68.57-82.487 119.895-111.164 63.994-35.756 145.343-57.964 241.788-66.004 190.986-15.902 261.795-160.019 262.793-253.008.767-71.46 11.589-136.058 32.165-191.996 31.297-85.086 84.88-150.305 159.262-193.845 92.541-54.173 173.615-79.089 238.76-99.108 24.144-7.42 46.696-14.35 67.674-22.038 1.407-2.137 1.81 5.729.17 5.727z"/><path id="c" d="M1920 6796.787c-1.908 2.5-525.255 2.409-797.044 1.82-406.48-.334-946.484-1.149-1120.774-.607-3.374-2.574-2.03-954.314-1.112-956.99 66.79 53.312 133.186 153.262 148.771 340.338 15.888 190.686 118.378 299.69 255.721 265.418C1007.376 6296.62 884.5 6770.705 1423 6619c.387-.11.777-.207 1.167-.305 101.945-51.208 143.872-150.034 144.657-223.187 1.047-97.208 20.931-284.468 190.158-383.481 60.052-35.135 110.933-57.705 160.078-74.838 1.936 2.24.032 567.375.94 859.598z"/></defs><g clip-path="url(#clip-76)" transform="translate(1 -5638)"><use fill="#fff" xlink:href="#a"/></g><use fill="#fff" xlink:href="#b" transform="translate(1 -5638)"/><use fill="#e1eeff" xlink:href="#c" transform="translate(1 -5638)"/></svg>