<svg xmlns="http://www.w3.org/2000/svg" xmlns:xlink="http://www.w3.org/1999/xlink" width="732" height="527"><defs><path id="a" d="M529.482 4902.384c-29.513 36.952-84.842 72.578-188.402 81.2-105.559 8.79-146.351 87.682-146.929 141.476-.579 53.793-11.588 157.42-105.283 212.211-33.248 19.444-61.42 31.933-88.63 41.414-1.07-1.239-.295-310.97.703-474.68 1.425-1.866 527.059-2.129 528.54-1.621z"/><path id="d" d="M204.282 5430.982c16.33-7.104 33.56-15.653 51.833-26.345 67.306-39.378 103.442-112.327 104.5-210.959.566-52.557 40.513-134.002 148.25-142.967 119.719-9.978 173.68-57.986 197.868-96.503 11.452-18.236 17.5-36.128 20.68-50.524.267-.804 3.26-.824 3.127-.307-.071.334-.144.668-.219 1.005-3.238 14.644-9.377 32.792-20.957 51.276-15.63 24.95-37.965 45.647-66.382 61.516-35.43 19.787-80.47 32.076-133.868 36.526-105.742 8.8-144.947 88.551-145.5 140.01-.424 39.545-6.415 75.292-17.808 106.247-17.327 47.085-46.995 83.176-88.177 107.27a486.652 486.652 0 0 1-46.415 23.915c-.64.08-6.778.151-6.932-.16z"/><mask id="c" width="2.02" height="2.02" x="-1.01" y="-1.01"><path fill="#fff" d="M-5.4 4897.6h539.8v485.8H-5.4z"/><use xlink:href="#a"/></mask><filter id="b" width="643.9" height="586.4" x="-63.9" y="4852" filterUnits="userSpaceOnUse"><feOffset dx="-12.9" dy="9.4" in="SourceGraphic" result="FeOffset1066Out"/><feGaussianBlur in="FeOffset1066Out" result="FeGaussianBlur1067Out" stdDeviation="14.24 14.24"/></filter></defs><g clip-path="url(#clip-122)" transform="translate(1 -4904)"><g filter="url(#b)"><use fill="none" stroke="#1e1e1e" stroke-opacity=".08" stroke-width="8.8" mask="url(&quot;#c&quot;)" xlink:href="#a"/><use fill="#1e1e1e" fill-opacity=".08" xlink:href="#a"/></g><use fill="#f7fafe" xlink:href="#a"/></g><g clip-path="url(#clip-122)" transform="translate(1 -4904)"><use fill="#fff" xlink:href="#d"/></g></svg>