<svg xmlns="http://www.w3.org/2000/svg" xmlns:xlink="http://www.w3.org/1999/xlink" width="732" height="527"><defs><path id="a" d="M1390.35 5431.615c29.506-36.952 84.824-72.578 188.361-81.2 105.536-8.79 146.32-87.682 146.898-141.476.579-53.794 11.586-157.42 105.26-212.212 33.242-19.443 61.407-31.933 88.61-41.414 1.073 1.24.019 313.976.521 475.687-1.425 1.866-528.169 1.123-529.65.615z"/><path id="d" d="M1712.358 4903.388c-15.396 6.827-31.59 14.962-48.7 24.974-67.292 39.378-103.42 112.326-104.478 210.959-.565 52.557-40.503 134.002-148.219 142.968-119.692 9.977-173.643 57.985-197.825 96.502-11.734 18.69-17.794 37.017-20.907 51.59.04 1.021-3.368 1.344-3.054-.011 3.13-14.935 9.286-33.8 21.33-53.03 15.628-24.949 37.958-45.646 66.368-61.515 35.424-19.787 80.454-32.077 133.84-36.526 105.72-8.8 144.916-88.551 145.468-140.01.425-39.545 6.415-75.292 17.805-106.247 17.324-47.086 46.985-83.176 88.159-107.27a485.854 485.854 0 0 1 41.406-21.635c1.449-1.296 10.233-.577 8.807-.749z"/><mask id="c" width="2.02" height="2.02" x="-1.01" y="-1.01"><path fill="#fff" d="M1385.6 4950.6h538.8v486.8h-538.8z"/><use xlink:href="#a"/></mask><filter id="b" width="642.9" height="587.4" x="1327.1" y="4905" filterUnits="userSpaceOnUse"><feOffset dx="-12.9" dy="9.4" in="SourceGraphic" result="FeOffset1091Out"/><feGaussianBlur in="FeOffset1091Out" result="FeGaussianBlur1092Out" stdDeviation="14.24 14.24"/></filter></defs><g clip-path="url(#clip-122)" transform="translate(-1189 -4904)"><g filter="url(#b)"><use fill="none" stroke="#1e1e1e" stroke-opacity=".08" stroke-width="8.8" mask="url(&quot;#c&quot;)" xlink:href="#a"/><use fill="#1e1e1e" fill-opacity=".08" xlink:href="#a"/></g><use fill="#f7fafe" xlink:href="#a"/></g><g clip-path="url(#clip-122)" transform="translate(-1189 -4904)"><use fill="#fff" xlink:href="#d"/></g></svg>