<svg xmlns="http://www.w3.org/2000/svg" xmlns:xlink="http://www.w3.org/1999/xlink" width="1922" height="256"><defs><path id="a" d="M869.64 2033.247c26.28 30.271 48.978 53.885 94.943 53.885 45.969 0 68.663-23.614 94.944-53.885 28.364-32.668 60.52-72.243 124.052-72.243 63.536 0 95.683 39.575 124.057 72.255 26.28 30.27 48.984 53.873 94.949 53.873 45.978 0 68.678-23.614 94.953-53.885 27.319-31.453 58.158-66.942 117.12-69.539v-.041c.17.002.333.012.502.014 2.115-.087 4.257-.14 6.445-.14.005.008.01.133.015.353 58.1 3.066 88.716 38.209 115.828 69.43 26.283 30.267 48.984 56.404 94.956 56.404 41.635 0 64.091-21.517 87.583-47.975.43 59.934.575 129.647.438 141.162-21.753 19.117-48.955 34.079-88.021 34.079-63.545 0-95.7-39.57-124.07-72.244-25.659-29.548-47.953-55.103-91.77-56.3-42.617 1.848-64.614 27.15-89.913 56.292-28.368 32.679-60.525 69.714-124.066 69.714-63.536 0-95.694-37.035-124.062-69.714-26.28-30.272-48.98-56.412-94.944-56.412-45.964 0-68.66 26.14-94.94 56.412-28.368 32.679-60.525 69.714-124.056 69.714s-95.689-37.035-124.056-69.714c-26.281-30.272-48.971-56.412-94.935-56.412-45.969 0-68.669 26.14-94.949 56.412-27.874 32.105-59.457 68.353-120.803 69.616a.635.635 0 0 1-.008.1c-63.54 0-95.7-37.033-124.075-69.697-26.277-30.267-48.978-53.876-94.96-53.876-45.968 0-68.674 23.6-94.956 53.865-28.375 32.675-60.525 72.244-124.066 72.244-41.432 0-69.521-16.826-91.917-37.592.164-20.328-.967-97.831-.431-143.088 25.211 28.978 47.902 53.414 92.348 53.414 45.967 0 68.669-26.137 94.951-56.404 28.37-32.673 60.53-69.703 124.07-69.703 63.547 0 95.705 37.03 124.076 69.703 25.901 29.828 48.345 55.626 92.99 56.369v-.07c45.09-.493 67.64-26.383 93.669-56.364 28.368-32.68 60.52-72.255 124.06-72.255 63.527 0 95.68 39.575 124.048 72.243z"/></defs><use fill="#f7fafe" xlink:href="#a" transform="translate(1 -1961)"/></svg>