<svg xmlns="http://www.w3.org/2000/svg" xmlns:xlink="http://www.w3.org/1999/xlink" width="117" height="664"><defs><path id="a" d="M270.986 2219.62c-13.836 11.938-24.628 22.248-24.628 43.126 0 20.88 10.792 31.187 24.628 43.124 14.931 12.884 33.02 27.49 33.02 56.346 0 28.86-18.089 43.461-33.025 56.349-13.835 11.937-26.67 22.349-24.623 43.127 4.185 42.489-58.35 46.327-58.195 0 0-28.86 16.927-43.465 31.863-56.35 13.837-11.937 25.784-22.248 25.784-43.126 0-20.877-11.947-31.185-25.784-43.122-14.936-12.885-31.863-27.492-31.863-56.348 0-28.857 16.927-43.463 31.863-56.348 13.837-11.937 25.784-22.243 25.784-43.12 0-20.88-11.947-31.191-25.784-43.128-14.674-12.66-31.24-27.006-31.818-54.87a.285.285 0 0 1-.046-.004c0-28.86 16.926-43.468 31.856-56.356 13.834-11.936 24.624-22.247 24.624-43.133 0-20.878-10.786-31.192-24.62-43.13-14.934-12.888-33.02-27.49-33.02-56.352 0-5.026.48-9.637 1.535-13.849 7.6-30.336 59.576-30.844 56.634 13.85 0 20.878 11.946 31.19 25.78 43.127 14.934 12.886 31.859 27.493 31.859 56.354 0 28.864-16.925 43.47-31.859 56.357-13.633 11.765-25.424 21.959-25.764 42.238h.032c.225 20.48 12.059 30.722 25.762 42.545 14.936 12.885 33.025 27.49 33.025 56.35 0 28.855-18.089 43.458-33.02 56.344z"/></defs><use fill="#f7fafe" xlink:href="#a" transform="translate(-187 -1831)"/></svg>